/* XPM */
static char * collectible_xpm[] = {
"64 64 426 2",
"  	c #72751B",
". 	c #72751F",
"+ 	c #71772E",
"@ 	c #72751E",
"# 	c #707834",
"$ 	c #678570",
"% 	c #6F7B45",
"& 	c #727520",
"* 	c #727623",
"= 	c #6B805F",
"- 	c #519EB1",
"; 	c #608F8E",
"> 	c #70793B",
", 	c #6E7C4B",
"' 	c #539BA9",
") 	c #3FAACE",
"! 	c #4FA0B9",
"~ 	c #6E7C4E",
"{ 	c #70721A",
"] 	c #73721A",
"^ 	c #698369",
"/ 	c #3FACD1",
"( 	c #1FBCF1",
"_ 	c #3AB0DA",
": 	c #69846E",
"< 	c #71741B",
"[ 	c #72711A",
"} 	c #7C6317",
"| 	c #7F6F19",
"1 	c #73751B",
"2 	c #717729",
"3 	c #6B805C",
"4 	c #5B9398",
"5 	c #26BBEE",
"6 	c #28B9EC",
"7 	c #5C949D",
"8 	c #70793D",
"9 	c #74741B",
"0 	c #776F1A",
"a 	c #6F701A",
"b 	c #72721A",
"c 	c #7F5F15",
"d 	c #A95811",
"e 	c #8C6D18",
"f 	c #75741B",
"g 	c #6E7B46",
"h 	c #5A9192",
"i 	c #599195",
"j 	c #28B5E6",
"k 	c #2BB0DC",
"l 	c #58939B",
"m 	c #6E7B48",
"n 	c #7B721A",
"o 	c #8D6917",
"p 	c #895E15",
"q 	c #75711A",
"r 	c #7A6C18",
"s 	c #A9470E",
"t 	c #C84D0D",
"u 	c #9A6917",
"v 	c #7C721A",
"w 	c #72751D",
"x 	c #6A805E",
"y 	c #38A5C6",
"z 	c #25A7D1",
"A 	c #15AEDE",
"B 	c #15BBEE",
"C 	c #32B4DF",
"D 	c #618E8A",
"E 	c #717833",
"F 	c #867019",
"G 	c #A96114",
"H 	c #B54C0E",
"I 	c #806416",
"J 	c #72731B",
"K 	c #71721A",
"L 	c #875B13",
"M 	c #D43705",
"N 	c #DE4309",
"O 	c #B06014",
"P 	c #887129",
"Q 	c #698577",
"R 	c #28A8D3",
"S 	c #0BABDB",
"T 	c #0F9DC8",
"U 	c #0DB6EB",
"V 	c #20B4E7",
"W 	c #5697A6",
"X 	c #7E7642",
"Y 	c #9A6A17",
"Z 	c #C9530F",
"` 	c #DA3E07",
" .	c #9C5310",
"..	c #757019",
"+.	c #766D19",
"@.	c #A6430B",
"#.	c #EE2E02",
"$.	c #F13805",
"%.	c #D05021",
"&.	c #8E685A",
"*.	c #356980",
"=.	c #0F7493",
"-.	c #14667F",
";.	c #0F82A6",
">.	c #247C9A",
",.	c #6D7075",
"'.	c #BD592D",
").	c #E74108",
"!.	c #EF3203",
"~.	c #BF3D09",
"{.	c #7E6917",
"].	c #7D5C13",
"^.	c #D13305",
"/.	c #F92A01",
"(.	c #F62F03",
"_.	c #BE3525",
":.	c #4D363D",
"<.	c #0F3640",
"[.	c #11272C",
"}.	c #0F3741",
"|.	c #37404B",
"1.	c #9A3630",
"2.	c #EE3207",
"3.	c #FB2C01",
"4.	c #DD3204",
"5.	c #895912",
"6.	c #787B21",
"7.	c #7F8226",
"8.	c #736D19",
"9.	c #9D420C",
"0.	c #EF2B02",
"a.	c #FB2901",
"b.	c #D13530",
"c.	c #575F73",
"d.	c #125061",
"e.	c #112123",
"f.	c #103A45",
"g.	c #48687F",
"h.	c #B63A3A",
"i.	c #F72901",
"j.	c #F02B01",
"k.	c #A7400B",
"l.	c #756C19",
"m.	c #795813",
"n.	c #CD3004",
"o.	c #F72A01",
"p.	c #E13A34",
"q.	c #63667C",
"r.	c #155970",
"s.	c #114150",
"t.	c #155163",
"u.	c #59657B",
"v.	c #D23A36",
"w.	c #F52901",
"x.	c #CD3204",
"y.	c #7C5A13",
"z.	c #656C17",
"A.	c #6F6A18",
"B.	c #963B0A",
"C.	c #ED2A01",
"D.	c #EC3933",
"E.	c #816E8A",
"F.	c #2190B8",
"G.	c #0F94BD",
"H.	c #1D8EB5",
"I.	c #747C9B",
"J.	c #E83F3E",
"K.	c #E92B02",
"L.	c #95440C",
"M.	c #716C19",
"N.	c #6E711A",
"O.	c #745411",
"P.	c #C82D03",
"Q.	c #ED2D14",
"R.	c #A95D73",
"S.	c #39ADDE",
"T.	c #0FBAF1",
"U.	c #35ADDD",
"V.	c #A26980",
"W.	c #EA3324",
"X.	c #BE3205",
"Y.	c #765E15",
"Z.	c #70731A",
"`.	c #6C6817",
" +	c #8E3509",
".+	c #E62601",
"++	c #CB4952",
"@+	c #529ECA",
"#+	c #0FBAF0",
"$+	c #55A0CC",
"%+	c #CB4C56",
"&+	c #DB2A02",
"*+	c #83450C",
"=+	c #6E6E19",
"-+	c #7F8124",
";+	c #6D701A",
">+	c #6D4D10",
",+	c #C42A03",
"'+	c #E03225",
")+	c #736B85",
"!+	c #23A5D3",
"~+	c #806D87",
"{+	c #DD3227",
"]+	c #AF3105",
"^+	c #6F5F15",
"/+	c #70731B",
"(+	c #686216",
"_+	c #8D3006",
":+	c #DF2601",
"<+	c #A63E43",
"[+	c #5F7390",
"}+	c #B33E45",
"|+	c #D12802",
"1+	c #7B420C",
"2+	c #6D6E19",
"3+	c #686F16",
"4+	c #6C6E19",
"5+	c #653C0B",
"6+	c #C02501",
"7+	c #D02810",
"8+	c #993132",
"9+	c #D3270F",
"0+	c #9E2B05",
"a+	c #655712",
"b+	c #6F721A",
"c+	c #585111",
"d+	c #872605",
"e+	c #E12601",
"f+	c #DE2501",
"g+	c #CA2301",
"h+	c #672D06",
"i+	c #646517",
"j+	c #71731B",
"k+	c #636417",
"l+	c #5F6016",
"m+	c #696C18",
"n+	c #5F6115",
"o+	c #5A2A05",
"p+	c #C22102",
"q+	c #E32701",
"r+	c #941D02",
"s+	c #47360B",
"t+	c #6A6D19",
"u+	c #6B6E19",
"v+	c #656717",
"w+	c #6E701A",
"x+	c #4F4F11",
"y+	c #3D3D0C",
"z+	c #4F5011",
"A+	c #606116",
"B+	c #6A6B18",
"C+	c #6C6F19",
"D+	c #646717",
"E+	c #3C2E07",
"F+	c #7C1904",
"G+	c #B32104",
"H+	c #591B03",
"I+	c #41400C",
"J+	c #696B18",
"K+	c #6D7019",
"L+	c #6B6D19",
"M+	c #636517",
"N+	c #545512",
"O+	c #46460E",
"P+	c #5A5B14",
"Q+	c #646617",
"R+	c #38380A",
"S+	c #222204",
"T+	c #292906",
"U+	c #333308",
"V+	c #42420C",
"W+	c #47480E",
"X+	c #262405",
"Y+	c #2F1102",
"Z+	c #511504",
"`+	c #281803",
" @	c #353608",
".@	c #4C4D0F",
"+@	c #45460D",
"@@	c #373709",
"#@	c #2A2B06",
"$@	c #262706",
"%@	c #43440D",
"&@	c #6F711A",
"*@	c #565813",
"=@	c #242404",
"-@	c #0E0D01",
";@	c #111101",
">@	c #181802",
",@	c #1B1B02",
"'@	c #121201",
")@	c #100F01",
"!@	c #141002",
"~@	c #1D1D03",
"{@	c #1A1A02",
"]@	c #0F0F02",
"^@	c #2A2B07",
"/@	c #3D3D0B",
"(@	c #161603",
"_@	c #0F0F01",
":@	c #0D0D01",
"<@	c #1B1C03",
"[@	c #48490F",
"}@	c #5B5B14",
"|@	c #272605",
"1@	c #2D2E06",
"2@	c #616316",
"3@	c #3C3C0A",
"4@	c #151502",
"5@	c #1A1B03",
"6@	c #46470E",
"7@	c #6D6F19",
"8@	c #555513",
"9@	c #272805",
"0@	c #5D5F15",
"a@	c #666818",
"b@	c #313008",
"c@	c #111201",
"d@	c #141502",
"e@	c #393A0A",
"f@	c #6A6C19",
"g@	c #48470F",
"h@	c #1B1B03",
"i@	c #1E1F04",
"j@	c #505111",
"k@	c #686918",
"l@	c #2F2F06",
"m@	c #0E0E02",
"n@	c #131301",
"o@	c #45440E",
"p@	c #191803",
"q@	c #4D4E10",
"r@	c #565612",
"s@	c #232204",
"t@	c #262705",
"u@	c #626316",
"v@	c #2A2A06",
"w@	c #303007",
"x@	c #686A18",
"y@	c #353409",
"z@	c #121202",
"A@	c #161702",
"B@	c #3E3F0B",
"C@	c #1A1A03",
"D@	c #1D1E03",
"E@	c #515111",
"F@	c #1F2004",
"G@	c #232404",
"H@	c #595A13",
"I@	c #5B5C14",
"J@	c #242505",
"K@	c #282905",
"L@	c #626416",
"M@	c #292905",
"N@	c #2F2F08",
"O@	c #3B3B0B",
"P@	c #39390A",
"Q@	c #141501",
"R@	c #46470F",
"S@	c #44440D",
"T@	c #1F1F03",
"U@	c #4F5110",
"V@	c #4C4D10",
"W@	c #1C1D03",
"X@	c #0B0B01",
"Y@	c #212204",
"Z@	c #575913",
"`@	c #525311",
" #	c #262605",
".#	c #5E5F15",
"+#	c #575914",
"@#	c #222304",
"##	c #090901",
"$#	c #5C5D14",
"%#	c #242504",
"&#	c #666918",
"*#	c #606115",
"=#	c #272704",
"-#	c #0A0902",
";#	c #2D2D07",
">#	c #0A0A02",
",#	c #313209",
"'#	c #37370A",
")#	c #101001",
"!#	c #101002",
"~#	c #5F6015",
"{#	c #272705",
"]#	c #0D0C02",
"^#	c #313208",
"/#	c #535412",
"(#	c #202104",
"_#	c #0A0901",
":#	c #292A06",
"<#	c #40400D",
"[#	c #171703",
"}#	c #585913",
"|#	c #2B2B06",
"1#	c #43430C",
"2#	c #4A4C0F",
"3#	c #2B2B07",
"4#	c #5C5E14",
"5#	c #2C2D06",
"6#	c #101101",
"7#	c #191A02",
"8#	c #626516",
"9#	c #373809",
"0#	c #141401",
"a#	c #272905",
"b#	c #575A13",
"c#	c #B3B0A9",
"d#	c #676918",
"e#	c #191902",
"f#	c #2F3107",
"g#	c #636917",
"h#	c #5B5E14",
"i#	c #343508",
"j#	c #202003",
"k#	c #1A1B02",
"l#	c #515311",
"m#	c #42440C",
"n#	c #363709",
"o#	c #313207",
"p#	c #333408",
"q#	c #3C3E0B",
"r#	c #494B0E",
"s#	c #595B13",
"                                                            . + @                                                               ",
"                                                            # $ % &                                                             ",
"                                                          * = - ; >                                                             ",
"                                                          , ' ) ! ~                                                             ",
"                                          { ]           . ^ / ( _ : &             <                                             ",
"                                          [ } | 1       2 3 4 5 6 7 8         9 0 a <                                           ",
"                                          b c d e f     g h i j k l m .   1 n o p q                                             ",
"                                            r s t u v w x y z A B C D E 9 F G H I J                                             ",
"                                            K L M N O P Q R S T U V W X Y Z `  ...                                              ",
"                                              +.@.#.$.%.&.*.=.-.;.>.,.'.).!.~.{.<                                               ",
"                                              { ].^./.(._.:.<.[.}.|.1.2.3.4.5.{               6.7.        7.7.                  ",
"                                                8.9.0.a.b.c.d.e.f.g.h.i.j.k.l.                  7.7.    6.7.                    ",
"                                                { m.n.o.p.q.r.s.t.u.v.w.x.y.{                   6.6.  6.6.z.                    ",
"                                                < A.B.C.D.E.F.G.H.I.J.K.L.M.                    z.z.  6.6.z.                    ",
"                                                  N.O.P.Q.R.S.T.U.V.W.X.Y.Z.                          z.z.                      ",
"                                                  < `. +.+++@+#+$+%+&+*+=+                                                      ",
"                        -+                          ;+>+,+'+)+!+~+{+]+^+Z.                                                      ",
"                      6.6.    -+6.6.                /+(+_+:+<+[+}+|+1+2+                                                        ",
"                -+    6.3+  6.-+-+                    4+5+6+7+8+9+0+a+b+                                                        ",
"                  -+6.3+  6.6.-+3+      < b+{         N.c+d+e+f+g+h+i+<         j+<                                             ",
"                3+6.6.    6.6.3+6.-+    { k+l+m+N.j+  /+n+o+p+q+r+s+t+    < b+u+v+w+                                            ",
"                  3+6.    6.3+6.6.3+      4+x+y+z+A+B+C+D+E+F+G+H+I+J+K+L+M+N+O+P+b+                                            ",
"                    3+    3+3+6.3+        < Q+R+S+T+U+V+W+X+Y+Z+`+ @.@+@@@#@$@%@m+                                              ",
"                                            &@*@=@-@;@>@,@'@)@!@)@>@~@{@'@]@^@n+Z.                                              ",
"                                              m+/@(@_@_@:@_@_@_@_@_@:@_@:@<@[@C+                                                ",
"                                              { }@|@_@_@_@_@_@_@_@_@_@_@_@1@2@<                                                 ",
"                                                t+3@4@_@_@_@_@_@_@_@_@_@5@6@7@                                                  ",
"                                                b+8@S+_@_@_@_@_@_@_@_@_@9@0@Z.                                                  ",
"                                                < a@b@c@_@_@_@_@_@_@_@d@e@f@                                                    ",
"6.-+-+                                            7@g@h@_@_@_@_@_@_@:@i@j@N.                                                    ",
"  -+6.6.                                          { }@=@:@_@_@_@_@_@-@T+2@<                                                     ",
"  3+6.6.                                            k@l@m@_@_@_@_@_@n@e@L+                                                      ",
"    3+3+                                            7@o@p@_@_@_@_@_@i@q@N.                                                      ",
"                                                    b+r@s@_@_@_@_@:@t@0@Z.                                                      ",
"                                                    < u@v@:@_@_@_@_@w@x@                                                        ",
"                                                      L+y@z@_@_@_@A@B@C+                                                        ",
"                                                      ;+o@C@_@_@_@D@q@N.                                                        ",
"                                                      &@E@F@_@_@:@G@H@b+                                                        ",
"                                                      Z.I@J@:@_@:@K@L@<                                                         ",
"                                                      < M+M@:@_@]@N@J+                                                          ",
"                                                        J+l@-@_@d@O@4+                                                          ",
"                                            6.          u+P@Q@:@5@R@;+                                                          ",
"                                          -+-+          C+S@p@:@T@U@N.                                                          ",
"                                        6.-+3+          ;+V@W@X@Y@Z@b+                                                          ",
"                                        6.6.            N.`@F@X@ #.#Z.                                                          ",
"                                        3+3+            b++#@###K@L@<                                                           ",
"                                                        { $#%###^@&#<                                                           ",
"                                                        Z.*#=#-#;#f@                              -+                            ",
"                                                        < L@K@>#,#u+                            6.6.    6.-+-+                  ",
"                                                        < Q+K@m@'#C+                      -+    6.3+  6.6.-+                    ",
"                                                        < v+M@)#P@C+                      3+6.6.  3+6.6.6.3+                    ",
"                                                        < Q+M@!#R+C+                      3+6.6.    6.6.3+6.-+                  ",
"                                                        /+~#{#]#^#L+                        3+3+    6.3+6.6.3+                  ",
"                                                        N./#(#_#:#v+<                               3+3+6.3+                    ",
"  -+-+        6.6.                                      u+<#[#X@@#}#b+          -+-+6.                                        -+",
"    -+6.6.  -+-+                                      < 2@|#_@:@>@1#u+            -+6.6.                                        ",
"-+-+3+6.3+6.6.3+                                      C+2#D@_@_@_@3#*#/+          3+6.6.                                  6.-+-+",
"-+6.6.3+3+6.6.3+                                    b+4#5#6#_@_@_@7#+@u+            3+3+                                    -+6.",
"3+6.6.    6.3+                                    /+8#9#0#_@_@_@_@6#a#b#N.                                                  3+c#",
"  3+6.                                          < d#B@e#_@_@_@_@_@_@6#f#0@Z.                                                  g#",
"                                                Z.h#i#j#>@'@_@_@6#4@k#K@2#K+                                                    ",
"                                                  w+8#l#m#n#o#o#p#q#r#s#m+<                                                     ",
"                                                    < b+K+C+4+4+C+C+N.b+                                                        ",
"                                                                                                                                "};
