/* XPM */
static char * collectible1_xpm[] = {
"64 64 566 2",
"  	c #72751B",
". 	c #72721F",
"+ 	c #727022",
"@ 	c #727021",
"# 	c #726F21",
"$ 	c #72721E",
"% 	c #72731E",
"& 	c #766830",
"* 	c #795B3C",
"= 	c #785A3B",
"- 	c #775939",
"; 	c #74672D",
"> 	c #72731D",
", 	c #72731F",
"' 	c #756131",
") 	c #765D35",
"! 	c #8A6E4E",
"~ 	c #997A5E",
"{ 	c #97785C",
"] 	c #86694A",
"^ 	c #745A32",
"/ 	c #787B21",
"( 	c #7F8226",
"_ 	c #727120",
": 	c #766433",
"< 	c #8E6F52",
"[ 	c #947459",
"} 	c #8A6B51",
"| 	c #806047",
"1 	c #826248",
"2 	c #85654B",
"3 	c #86654B",
"4 	c #856449",
"5 	c #89694E",
"6 	c #8E6F53",
"7 	c #8A6C4E",
"8 	c #73612F",
"9 	c #71711E",
"0 	c #726E22",
"a 	c #79583D",
"b 	c #9A7A5F",
"c 	c #927359",
"d 	c #795840",
"e 	c #69442B",
"f 	c #6C482E",
"g 	c #724D33",
"h 	c #734E34",
"i 	c #734D33",
"j 	c #7D5B41",
"k 	c #907055",
"l 	c #947559",
"m 	c #745436",
"n 	c #716D20",
"o 	c #656C17",
"p 	c #785A3C",
"q 	c #99795E",
"r 	c #87674D",
"s 	c #735037",
"t 	c #714D33",
"u 	c #744F35",
"v 	c #785339",
"w 	c #795339",
"x 	c #79553B",
"y 	c #88664C",
"z 	c #937358",
"A 	c #735434",
"B 	c #716E1F",
"C 	c #716E21",
"D 	c #755738",
"E 	c #97765B",
"F 	c #9A795C",
"G 	c #88664B",
"H 	c #78553B",
"I 	c #7B573D",
"J 	c #7E5A40",
"K 	c #7F5A40",
"L 	c #7E5A3F",
"M 	c #89664C",
"N 	c #947257",
"O 	c #8D6C51",
"P 	c #6E4E30",
"Q 	c #706D1E",
"R 	c #6F6C1D",
"S 	c #684C29",
"T 	c #866045",
"U 	c #8C6549",
"V 	c #8F6C50",
"W 	c #89664B",
"X 	c #7D583E",
"Y 	c #775239",
"Z 	c #5E411E",
"` 	c #6D6C1A",
" .	c #7F8124",
"..	c #71731B",
"+.	c #6E681F",
"@.	c #6F502D",
"#.	c #6E4930",
"$.	c #805B41",
"%.	c #8F694D",
"&.	c #8E684D",
"*.	c #8E684C",
"=.	c #8A654A",
"-.	c #896449",
";.	c #77533A",
">.	c #603A23",
",.	c #60441F",
"'.	c #6B671A",
").	c #71721C",
"!.	c #674D25",
"~.	c #704B31",
"{.	c #785238",
"].	c #7A5338",
"^.	c #795237",
"/.	c #785137",
"(.	c #744D34",
"_.	c #6C462D",
":.	c #5E3820",
"<.	c #594115",
"[.	c #70711A",
"}.	c #686F16",
"|.	c #71711D",
"1.	c #6B4F28",
"2.	c #7A553A",
"3.	c #805A3E",
"4.	c #7D573C",
"5.	c #7B563B",
"6.	c #754F35",
"7.	c #704A31",
"8.	c #6D482E",
"9.	c #643F27",
"0.	c #5A4217",
"a.	c #70711B",
"b.	c #6C512A",
"c.	c #7B563A",
"d.	c #8A6347",
"e.	c #8F694C",
"f.	c #8A6448",
"g.	c #855F43",
"h.	c #7A553B",
"i.	c #714C32",
"j.	c #5B4217",
"k.	c #896347",
"l.	c #8B6549",
"m.	c #866044",
"n.	c #7B553B",
"o.	c #714C33",
"p.	c #654027",
"q.	c #71701E",
"r.	c #6D512B",
"s.	c #7B563C",
"t.	c #896348",
"u.	c #8F684C",
"v.	c #7C563C",
"w.	c #724D34",
"x.	c #674229",
"y.	c #5D441B",
"z.	c #6F6F1B",
"A.	c #716F1E",
"B.	c #6F5829",
"C.	c #7E593C",
"D.	c #835D42",
"E.	c #8E694C",
"F.	c #6B452D",
"G.	c #6B482C",
"H.	c #624E1C",
"I.	c #6E6E1B",
"J.	c #715C2C",
"K.	c #7E583C",
"L.	c #886144",
"M.	c #845D41",
"N.	c #805A3F",
"O.	c #815B3F",
"P.	c #805B40",
"Q.	c #7F593F",
"R.	c #765136",
"S.	c #6F4A30",
"T.	c #774F37",
"U.	c #6C452D",
"V.	c #65521E",
"W.	c #716E20",
"X.	c #745F2D",
"Y.	c #8A6346",
"Z.	c #8C6447",
"`.	c #8F684B",
" +	c #8B6448",
".+	c #845E43",
"++	c #815B40",
"@+	c #765036",
"#+	c #825C40",
"$+	c #7D563C",
"%+	c #784F36",
"&+	c #684028",
"*+	c #65541E",
"=+	c #6D6B1A",
"-+	c #706127",
";+	c #795337",
">+	c #876143",
",+	c #8D6548",
"'+	c #956F51",
")+	c #987154",
"!+	c #977053",
"~+	c #936D4F",
"{+	c #8E684A",
"]+	c #8D6648",
"^+	c #7B5339",
"/+	c #704830",
"(+	c #603922",
"_+	c #665A1A",
":+	c #75622D",
"<+	c #795338",
"[+	c #815A3F",
"}+	c #8E664A",
"|+	c #946D50",
"1+	c #987355",
"2+	c #9A7557",
"3+	c #997456",
"4+	c #967051",
"5+	c #926C4D",
"6+	c #8F684A",
"7+	c #8D6649",
"8+	c #896246",
"9+	c #805B3F",
"0+	c #7D583C",
"a+	c #633D24",
"b+	c #68591F",
"c+	c #70721B",
"d+	c #72741C",
"e+	c #735F2B",
"f+	c #835F42",
"g+	c #916B4E",
"h+	c #90694D",
"i+	c #8A6446",
"j+	c #8B6547",
"k+	c #957052",
"l+	c #9B7558",
"m+	c #9A7457",
"n+	c #997356",
"o+	c #926B4D",
"p+	c #866043",
"q+	c #765035",
"r+	c #724C31",
"s+	c #764F35",
"t+	c #754D34",
"u+	c #694528",
"v+	c #63561A",
"w+	c #71741B",
"x+	c #735B2D",
"y+	c #866145",
"z+	c #967052",
"A+	c #967253",
"B+	c #8D6749",
"C+	c #886245",
"D+	c #845E41",
"E+	c #815B3E",
"F+	c #7D573B",
"G+	c #7F593D",
"H+	c #7F593E",
"I+	c #6A432A",
"J+	c #614E1B",
"K+	c #72741B",
"L+	c #72731C",
"M+	c #716326",
"N+	c #81613E",
"O+	c #977153",
"P+	c #9A7556",
"Q+	c #9D795A",
"R+	c #9F7B5C",
"S+	c #9A7656",
"T+	c #977353",
"U+	c #967252",
"V+	c #926D4F",
"W+	c #8E694B",
"X+	c #8A6547",
"Y+	c #876244",
"Z+	c #886345",
"`+	c #8C6548",
" @	c #835D41",
".@	c #7C553A",
"+@	c #714930",
"@@	c #674825",
"#@	c #685E1B",
"$@	c #72711E",
"%@	c #70532E",
"&@	c #8B6649",
"*@	c #997355",
"=@	c #9D7959",
"-@	c #9F7C5C",
";@	c #A27E5E",
">@	c #A27F5E",
",@	c #9F7B5B",
"'@	c #977152",
")@	c #956F50",
"!@	c #8B6548",
"~@	c #8B6446",
"{@	c #7E563C",
"]@	c #774F36",
"^@	c #6A432B",
"/@	c #5F431C",
"(@	c #70701B",
"_@	c #72542E",
":@	c #9B7557",
"<@	c #A17E5E",
"[@	c #A07D5C",
"}@	c #997556",
"|@	c #967152",
"1@	c #957050",
"2@	c #8C6547",
"3@	c #7F583D",
"4@	c #785136",
"5@	c #6B432B",
"6@	c #60451D",
"7@	c #71532D",
"8@	c #9E795A",
"9@	c #A37F5F",
"0@	c #A48060",
"a@	c #A3805F",
"b@	c #A07D5D",
"c@	c #9A7657",
"d@	c #987353",
"e@	c #967151",
"f@	c #855E41",
"g@	c #80593D",
"h@	c #795137",
"i@	c #6B442B",
"j@	c #61461E",
"k@	c #6F522D",
"l@	c #8A6548",
"m@	c #9F7A5B",
"n@	c #A17E5D",
"o@	c #A37F60",
"p@	c #936D4E",
"q@	c #90694B",
"r@	c #8A6345",
"s@	c #835C3F",
"t@	c #6C452B",
"u@	c #706E1D",
"v@	c #6A5624",
"w@	c #704D2F",
"x@	c #916C4F",
"y@	c #A47F60",
"z@	c #A27D5E",
"A@	c #A07C5C",
"B@	c #916B4C",
"C@	c #835C40",
"D@	c #744E33",
"E@	c #664026",
"F@	c #614021",
"G@	c #63511B",
"H@	c #6F6E1B",
"I@	c #6F6B1D",
"J@	c #684528",
"K@	c #7D563B",
"L@	c #977254",
"M@	c #997455",
"N@	c #A47F61",
"O@	c #A07C5D",
"P@	c #9B7657",
"Q@	c #946E4F",
"R@	c #8F694B",
"S@	c #805A3D",
"T@	c #7A5337",
"U@	c #744D32",
"V@	c #6F482E",
"W@	c #5B3A1C",
"X@	c #6D6A1B",
"Y@	c #6A482A",
"Z@	c #876044",
"`@	c #8E6749",
" #	c #906B4D",
".#	c #916C4E",
"+#	c #926C4F",
"@#	c #987455",
"##	c #977354",
"$#	c #8D6849",
"%#	c #8B6546",
"&#	c #7D573A",
"*#	c #785236",
"=#	c #775135",
"-#	c #795236",
";#	c #7A5137",
">#	c #734B32",
",#	c #5D3C1D",
"'#	c #6C6A1A",
")#	c #6A4729",
"!#	c #835C41",
"~#	c #8C6448",
"{#	c #916B4D",
"]#	c #967153",
"^#	c #9A7456",
"/#	c #906A4C",
"(#	c #8D684A",
"_#	c #8C6749",
":#	c #8C6648",
"<#	c #866143",
"[#	c #7E583A",
"}#	c #815B3D",
"|#	c #8B6445",
"1#	c #855F42",
"2#	c #7B5338",
"3#	c #774F35",
"4#	c #6D462D",
"5#	c #5A3A1A",
"6#	c #684526",
"7#	c #754F34",
"8#	c #876144",
"9#	c #987254",
"0#	c #9D7759",
"a#	c #9D7859",
"b#	c #9C7758",
"c#	c #987253",
"d#	c #977252",
"e#	c #8C6546",
"f#	c #825C3E",
"g#	c #704B30",
"h#	c #6F482F",
"i#	c #5B351E",
"j#	c #563616",
"k#	c #6E6B1D",
"l#	c #694628",
"m#	c #815A3E",
"n#	c #845E42",
"o#	c #8A6447",
"p#	c #8F6A4C",
"q#	c #9F7A5A",
"r#	c #946F50",
"s#	c #8F694A",
"t#	c #805B3D",
"u#	c #745034",
"v#	c #664127",
"w#	c #68462A",
"x#	c #583918",
"y#	c #6C6A19",
"z#	c #694728",
"A#	c #855E42",
"B#	c #8B6447",
"C#	c #8E684B",
"D#	c #886346",
"E#	c #815C40",
"F#	c #896345",
"G#	c #845D40",
"H#	c #7B5438",
"I#	c #7D563A",
"J#	c #724D32",
"K#	c #755034",
"L#	c #7C563A",
"M#	c #6C472D",
"N#	c #6D4A2E",
"O#	c #5B3A1B",
"P#	c #70701C",
"Q#	c #6C5E23",
"R#	c #755334",
"S#	c #7E573C",
"T#	c #896245",
"U#	c #916A4C",
"V#	c #8D674A",
"W#	c #8C674A",
"X#	c #886244",
"Y#	c #825B3D",
"Z#	c #886042",
"`#	c #775136",
" $	c #7C583A",
".$	c #6F4B30",
"+$	c #633E25",
"@$	c #634524",
"#$	c #665A1C",
"$$	c #6F701B",
"%$	c #62461F",
"&$	c #896346",
"*$	c #906A4B",
"=$	c #7F583C",
"-$	c #825B3E",
";$	c #855D41",
">$	c #785337",
",$	c #764F34",
"'$	c #6F4D30",
")$	c #654529",
"!$	c #5A381E",
"~$	c #593F16",
"{$	c #6F701A",
"]$	c #65511F",
"^$	c #785537",
"/$	c #7B5439",
"($	c #8A6245",
"_$	c #865F42",
":$	c #845E40",
"<$	c #855D40",
"[$	c #775236",
"}$	c #674328",
"|$	c #644024",
"1$	c #623E23",
"2$	c #654528",
"3$	c #654728",
"4$	c #5E4D18",
"5$	c #675521",
"6$	c #6E4A30",
"7$	c #7A543A",
"8$	c #7B553A",
"9$	c #7B543A",
"0$	c #785237",
"a$	c #754F33",
"b$	c #70492F",
"c$	c #6D472D",
"d$	c #6D462B",
"e$	c #6A4629",
"f$	c #6A4C2A",
"g$	c #6A4C2C",
"h$	c #604124",
"i$	c #5F4F19",
"j$	c #666916",
"k$	c #62511D",
"l$	c #664229",
"m$	c #724F34",
"n$	c #7A5439",
"o$	c #7A5339",
"p$	c #795238",
"q$	c #775137",
"r$	c #764F36",
"s$	c #744E35",
"t$	c #714D32",
"u$	c #6A4D2B",
"v$	c #5F3F22",
"w$	c #62531A",
"x$	c #6E6E1A",
"y$	c #64551C",
"z$	c #623F26",
"A$	c #704C33",
"B$	c #714E34",
"C$	c #785239",
"D$	c #745136",
"E$	c #6F5031",
"F$	c #6B4E2D",
"G$	c #694C2B",
"H$	c #5E3F22",
"I$	c #62551A",
"J$	c #6D6C19",
"K$	c #62521C",
"L$	c #5F3D25",
"M$	c #613E26",
"N$	c #6E4A31",
"O$	c #745036",
"P$	c #735036",
"Q$	c #724F35",
"R$	c #725035",
"S$	c #705133",
"T$	c #684B2C",
"U$	c #604024",
"V$	c #60521A",
"W$	c #5F4F18",
"X$	c #5E4B19",
"Y$	c #624424",
"Z$	c #644329",
"`$	c #64432A",
" %	c #644529",
".%	c #65472A",
"+%	c #624724",
"@%	c #5B4A16",
"#%	c #5D4E16",
"$%	c #71721B",
"%%	c #615418",
"&%	c #573D17",
"*%	c #583F17",
"=%	c #563D16",
"-%	c #605418",
";%	c #6F6F1A",
">%	c #B3B0A9",
",%	c #636917",
"                                                                                                                                ",
"                                                                                                                                ",
"                                                                                                                                ",
"                                                                                                                                ",
"                                                                                                                                ",
"                                                                                                                                ",
"                                                                                                                                ",
"                                                                                                                                ",
"                                                      . + @ @ @ # $                                                             ",
"                                                  % % & * = = = - ; > %                                                         ",
"                                                , ' ) ! ~ ~ ~ ~ { ] ^ ' %                     / (         ( (                   ",
"                                              _ : < [ } | 1 2 3 4 5 6 7 8 9                     ( (     / (                     ",
"                                              0 a b c d e f g h i j k l m n                     / /   / / o                     ",
"                                              0 p q r s t u v w w x y z A B                     o o   / / o                     ",
"                                              C D E F G H I J K L M N O P Q                           o o                       ",
"                                              R S T U V N N N N N W X Y Z `                                                     ",
"                         .                    ..+.@.#.$.%.&.*.=.-.;.>.,.'...                                                    ",
"                      / /      ./ /             ).!.~.{.].^./.(.i _.:.<.[.                                                      ",
"                 .    / }.  /  . .              |.1.2.3.4.5.w 6.7.8.9.0.a.                                                      ",
"                   ./ }.  / /  .}.              |.b.c.d.e.*.f.g.h.i.9.j.a.                                                      ",
"                }./ /     / / }./  .            |.b.5.k.e.*.l.m.n.o.p.j.a.                                                      ",
"                  }./     / }./ / }.            q.r.s.t.u.*.l.T v.w.x.y.z.                                                      ",
"                    }.    }.}./ }.            A.B.C.w D.E.*.l.m.4.i.F.G.H.I.                                                    ",
"                                            Q J.K.L.M.N.O.P.Q.R.S.g {.T.U.V.`                                                   ",
"                                          W.X.4.Y.Z.`. +.+.+++w @+4.#+$+%+&+*+=+                                                ",
"                                          -+;+>+,+`.'+)+)+!+~+{+]+Y.g.3.^+/+(+_+                                                ",
"                                        > :+<+[+}+|+1+2+2+3+4+5+6+7+8+9+0+_.a+b+c+                                              ",
"                                      d+e+f+g+h+i+j+k+l+m+n+'+o+6+7+p+q+r+s+t+u+v+w+                                            ",
"                                      d+x+y+z+z+A+A+g+{+{+B+C+D+E+F+G+D+K.H+^+I+J+K+                                            ",
"/  . .                              L+M+N+e.O+P+Q+R+S+A+T+U+V+W+X+Y+Z+`+C+ @.@+@@@#@..                                          ",
"   ./ /                             $@%@&@z+*@=@-@;@>@>@>@>@,@S+'@)@5+!@~@D+{@]@^@/@(@                                          ",
"  }./ /                             $@_@&@O+:@,@<@;@>@>@>@>@[@}@|@1@5+2@~@D+3@4@5@6@(@                                          ",
"    }.}.                            $@7@&@2+8@-@<@;@9@0@a@>@b@c@d@e@5+]+j+f@g@h@i@j@(@                                          ",
"                                    q.k@l@:@m@n@9@o@0@0@0@9@;@,@P+4+p@q@2@r@s@^.t@j@z.                                          ",
"                                  u@v@w@5.x@R+;@9@9@y@y@y@y@z@A@S+4+p@B@2@~@C@D@E@F@G@H@                                        ",
"                                  I@J@K@O.&@k+L@M@;@0@N@0@y@<@O@P@e@Q@R@S@F+T@U@V@i@W@X@                                        ",
"                                  I@Y@Z@`@`. #.#+#}@c@2+2+}@@###V+$#%#>+&#*#=#-#;#>#,#'#                                        ",
"                                  I@)#!#~#{#]#^#*@/#(#B+B+_#:#j+<#E+[#}#|#1#K.2#3#4#5#'#                                        ",
"                                  I@6#7#1#8#&@9#^#:@0#a#a#b#'@c#d#5+e#r@|#f#g#V@h#i#j#'#                                        ",
"                                  k#l#m#F+n#o#o#]#p#@#q#q#@#m.r#Q@s#D+7#t#g#u#g#v#w#x#y#                                        ",
"                                  k#z#f@A#B#q@ +k.(#C#L@L@D#Y.E#F#G#H#I#J#K#L#7#M#N#O#'#                                        ",
"                                  P#Q#R#S#T#U#/#o#{#V#C#W#X#q@3.F+I#Y#Z#`#F+ $.$+$@$#$$$                                        ",
"                                    (@%$i m#p+&$B#*${#j+&$*$s#~@=$-$r@;$>$,$'$)$!$~${$                                          ",
"                                    a.]$^$L#`#`#/$X#%#&$T#($T#_$:$<$-$[$}$|$1$2$3$4$[.                                          ",
"                                    K+P#5$6$7$8$9$<+0$`#q+a$r+b$c$d$t@e$f$f$g$h$i${$                                            ",
"                                        j$k$l$m$n$o$w p$/.q$@+r$u s$t$g$u$u$v$w$x$                                              ",
"                                          ` y$z$A$B${.9$o$C$C${.{.D$E$F$G$H$I$J$                                                ",
"                                            ` K$L$M$N$O$P$Q$Q$m$R$S$T$U$H$V$J$                     .                            ",
"                                              x$W$X$Y$Z$`$`$Z$Z$ %.%+%@%#%x$                    / /     /  . .                  ",
"                                                w+$%%%&%*%*%*%*%*%=%-%c+..                 .    / }.  / /  .                    ",
"                                                    a.;%;%;%;%;%;%;%[.                    }./ /   }./ / / }.                    ",
"                                                                                          }./ /     / / }./  .                  ",
"                                                                                            }.}.    / }./ / }.                  ",
"                                                                                                    }.}./ }.                    ",
"   . .        / /                                                                . ./                                          .",
"     ./ /    . .                                                                   ./ /                                         ",
" . .}./ }./ / }.                                                                  }./ /                                   /  . .",
" ./ / }.}./ / }.                                                                    }.}.                                     ./ ",
"}./ /     / }.                                                                                                              }.>%",
"  }./                                                                                                                         ,%",
"                                                                                                                                ",
"                                                                                                                                ",
"                                                                                                                                ",
"                                                                                                                                "};
