/* XPM */
static char * floor_xpm[] = {
"64 64 305 2",
"  	c #72751B",
". 	c #6D7037",
"+ 	c #646554",
"@ 	c #5F5F5F",
"# 	c #717423",
"$ 	c #6E7130",
"% 	c #6D6F36",
"& 	c #6D7035",
"* 	c #6C6E48",
"= 	c #6A6B5F",
"- 	c #696969",
"; 	c #6F7131",
"> 	c #686A49",
", 	c #646553",
"' 	c #737370",
") 	c #787878",
"! 	c #6F7130",
"~ 	c #6D7036",
"{ 	c #686868",
"] 	c #6F6F6F",
"^ 	c #7A7A7A",
"/ 	c #7F7F7F",
"( 	c #777777",
"_ 	c #7D7D7D",
": 	c #6B6D46",
"< 	c #67675B",
"[ 	c #656565",
"} 	c #676767",
"| 	c #808080",
"1 	c #717422",
"2 	c #6A6B68",
"3 	c #707070",
"4 	c #757575",
"5 	c #646464",
"6 	c #6D6D6D",
"7 	c #7C7C7C",
"8 	c #7B7B7B",
"9 	c #737373",
"0 	c #6E6E6E",
"a 	c #6B6D47",
"b 	c #767676",
"c 	c #575757",
"d 	c #424242",
"e 	c #414141",
"f 	c #717171",
"g 	c #5F6060",
"h 	c #383939",
"i 	c #0C0502",
"j 	c #180A02",
"k 	c #180902",
"l 	c #070302",
"m 	c #373839",
"n 	c #5F5F60",
"o 	c #6E6F6F",
"p 	c #67685B",
"q 	c #6B6C68",
"r 	c #7E7E7E",
"s 	c #434343",
"t 	c #383838",
"u 	c #1E1E1E",
"v 	c #1B0A01",
"w 	c #331C0E",
"x 	c #7F8226",
"y 	c #616060",
"z 	c #413C3A",
"A 	c #23140B",
"B 	c #211006",
"C 	c #21130A",
"D 	c #21130B",
"E 	c #392215",
"F 	c #523321",
"G 	c #583623",
"H 	c #4E2F1D",
"I 	c #412617",
"J 	c #371F13",
"K 	c #331B0E",
"L 	c #392114",
"M 	c #4D413C",
"N 	c #646160",
"O 	c #727437",
"P 	c #3D2C25",
"Q 	c #3C2315",
"R 	c #3C2314",
"S 	c #3C2415",
"T 	c #3D2518",
"U 	c #533321",
"V 	c #6E442D",
"W 	c #794B31",
"X 	c #764930",
"Y 	c #6C422B",
"Z 	c #5C3723",
"` 	c #573320",
" .	c #5F3824",
"..	c #5C3C2E",
"+.	c #4D413D",
"@.	c #666754",
"#.	c #727438",
"$.	c #656C17",
"%.	c #6B6C45",
"&.	c #301C12",
"*.	c #3F2617",
"=.	c #472D1E",
"-.	c #482D1E",
";.	c #4E3020",
">.	c #583724",
",.	c #6A412B",
"'.	c #7D4D33",
").	c #865337",
"!.	c #6B422C",
"~.	c #653E2A",
"{.	c #6F442E",
"].	c #693F29",
"^.	c #502F1F",
"/.	c #6B6C5F",
"(.	c #6F7148",
"_.	c #64692E",
":.	c #402618",
"<.	c #452B1B",
"[.	c #6F452E",
"}.	c #7D4E33",
"|.	c #845236",
"1.	c #875437",
"2.	c #875337",
"3.	c #7E4E34",
"4.	c #663E2A",
"5.	c #71442E",
"6.	c #727370",
"7.	c #67695F",
"8.	c #6C6C6C",
"9.	c #727272",
"0.	c #22130B",
"a.	c #4C2F20",
"b.	c #533322",
"c.	c #523322",
"d.	c #5D3A26",
"e.	c #794B32",
"f.	c #754730",
"g.	c #744730",
"h.	c #643B26",
"i.	c #3B2215",
"j.	c #424343",
"k.	c #797979",
"l.	c #201005",
"m.	c #533423",
"n.	c #633D29",
"o.	c #623C29",
"p.	c #7A4B32",
"q.	c #3B2112",
"r.	c #2F1C11",
"s.	c #563524",
"t.	c #6B412C",
"u.	c #6A412C",
"v.	c #573524",
"w.	c #4F2F1F",
"x.	c #636160",
"y.	c #686955",
"z.	c #413C3B",
"A.	c #3E2E27",
"B.	c #40281A",
"C.	c #452B1C",
"D.	c #573624",
"E.	c #69402B",
"F.	c #5D3D2F",
"G.	c #4B2F1F",
"H.	c #603B27",
"I.	c #6D432D",
"J.	c #6B6B68",
"K.	c #6E432D",
"L.	c #72462F",
"M.	c #4C2F1F",
"N.	c #5F3A27",
"O.	c #3C2215",
"P.	c #73462F",
"Q.	c #71452E",
"R.	c #70452E",
"S.	c #673E28",
"T.	c #492B1C",
"U.	c #473E3B",
"V.	c #626160",
"W.	c #6D422C",
"X.	c #5C3825",
"Y.	c #4E352B",
"Z.	c #463E3C",
"`.	c #492E1E",
" +	c #4D3020",
".+	c #5A3825",
"++	c #6C422D",
"@+	c #51301E",
"#+	c #301B10",
"$+	c #563523",
"%+	c #613C28",
"&+	c #603B28",
"*+	c #70442E",
"=+	c #512F1D",
"-+	c #2E180C",
";+	c #4E3120",
">+	c #5A3725",
",+	c #653E29",
"'+	c #4F3120",
")+	c #787B21",
"!+	c #7F8124",
"~+	c #686F16",
"{+	c #777A28",
"]+	c #804F35",
"^+	c #804F34",
"/+	c #666C2E",
"(+	c #5E3A26",
"_+	c #7F4F34",
":+	c #73472F",
"<+	c #512F1E",
"[+	c #2E1A0F",
"}+	c #424243",
"|+	c #593522",
"1+	c #4D2E1D",
"2+	c #53433E",
"3+	c #666261",
"4+	c #663E29",
"5+	c #6F442D",
"6+	c #6A4533",
"7+	c #53443E",
"8+	c #23130B",
"9+	c #583624",
"0+	c #5D3926",
"a+	c #6C422C",
"b+	c #74462D",
"c+	c #472A1A",
"d+	c #683F2B",
"e+	c #633C29",
"f+	c #472817",
"g+	c #6D6E6E",
"h+	c #633C28",
"i+	c #613B28",
"j+	c #472A1B",
"k+	c #573523",
"l+	c #696B43",
"m+	c #636457",
"n+	c #71452F",
"o+	c #573422",
"p+	c #331D11",
"q+	c #27150C",
"r+	c #45291B",
"s+	c #643D28",
"t+	c #7B4C32",
"u+	c #60605D",
"v+	c #331C11",
"w+	c #180B05",
"x+	c #0E0503",
"y+	c #28160C",
"z+	c #533220",
"A+	c #774930",
"B+	c #482A1A",
"C+	c #626356",
"D+	c #606060",
"E+	c #636363",
"F+	c #563422",
"G+	c #321C10",
"H+	c #000000",
"I+	c #0F0603",
"J+	c #29160D",
"K+	c #666666",
"L+	c #616161",
"M+	c #6A6A6A",
"N+	c #462A1B",
"O+	c #21120A",
"P+	c #3D2416",
"Q+	c #392014",
"R+	c #341D12",
"S+	c #402518",
"T+	c #7E4E33",
"U+	c #462919",
"V+	c #373838",
"W+	c #5E5F5F",
"X+	c #643D29",
"Y+	c #603A27",
"Z+	c #553422",
"`+	c #5C3826",
" @	c #74472E",
".@	c #0D0503",
"+@	c #1A0901",
"@@	c #5E3A27",
"#@	c #7A4B31",
"$@	c #5D3824",
"%@	c #3B2010",
"&@	c #201008",
"*@	c #1B0B03",
"=@	c #462C1D",
"-@	c #825135",
";@	c #643C25",
">@	c #3B2011",
",@	c #5F3B27",
"'@	c #78793A",
")@	c #686954",
"!@	c #3D2415",
"~@	c #734630",
"{@	c #74472D",
"]@	c #616353",
"^@	c #777939",
"/@	c #727439",
"(@	c #656B34",
"_@	c #B3B0A9",
":@	c #666B34",
"<@	c #636917",
"[@	c #68402B",
"}@	c #68402A",
"|@	c #623C28",
"                                                      . + @ @ @ @ @ @ + .                                                       ",
"                                          # $ % % & % * = - - - - - - = * % & % % $ #                                           ",
"                                          ; > + + , + = ' ) ) ) ) ) ) ' = + , + + > ;                                           ",
"                                  # ! ~ ~ * = - - { - ] ^ / / / / / / ^ ] - { - - = * % & $ #                                   ",
"                                  ; > , + = ' ( ) ( ( ^ _ / / / / / / _ ^ ( ( ) ( ' = + , > ;                                   ",
"                              # ; : < [ } ] ^ / / / / / / / / | | | | / / / / / / ^ ] - { = * $ 1                               ",
"                              ! > < 2 3 4 ^ _ / / / / / / / / / / / / / / / / / / _ ^ ) ( ' = > $                               ",
"                              ~ , 5 6 4 7 / / / / / / | | 8 9 0 0 0 0 9 8 | | / / / / / / ^ ] = a $ 1                           ",
"                              ~ + 5 6 b 7 / / / / / / / / 9 c d e e d c 9 / / / / / / / / _ ^ ' = > $                           ",
"                          # ; : < - f ) _ / / / / 8 9 ] 0 g h i j k l m n 0 o 9 8 / / / / / / ^ ] = * ; #                       ",
"                          ! > p q f ) _ r / / / / 9 c s e t u v w w v u t e s c 9 / / / / / / _ ^ ' = > $ x x                   ",
"                          ~ , 5 6 4 7 / / / / 7 9 y z A B C D E F G H I J K L M N 9 7 / / / / / / ( { , O x                     ",
"                          ~ + 5 6 b 7 / / / / 9 c z P Q R S T U V W X Y Z `  ...+.c 9 / / / / / / ) - @.#.$.                    ",
"                  # ! ~ ~ %.p - f ) _ / / 8 9 y z &.*.=.-.;.>.,.'.).).'.!.~.{.].^.+.N 9 8 / / / / ^ ] /.(._.1                   ",
"                  ; > , + p q f ) _ r / / 9 c z P :.<.-.-.>.[.}.|.1.2.3.!.4.{.5.]...M c 9 / / / / _ ^ 6.7.> $                   ",
"              # ; : < [ } 8.9.) _ / / | / ] s 0.Q a.b.c.a.d.e.).).).).'.!.~.{.f.g.h.i.j.o / | / / / / ^ ] = * ; #               ",
"              ! > < 2 3 4 k.8 _ r / / | / 0 e l.R m.n.o.b.d.p.).2.).).'.!.~.{.f.f.h.q.e 0 / | / / / / _ ^ ' = > $               ",
"              ~ , 5 6 b 7 / / / / / / 7 9 y z r.*.s.t.u.v.d.e.).).).).'.!.~.{.g.g.].w.M x.9 7 / / / / / / ( { , &               ",
"              ~ y.5 6 b 7 / / / / / / 9 c z.A.B.C.D.!.u.D.d.e.).).).).'.!.~.{.g.g.5.E.F.+.c 9 / / / / / / ) - + %               ",
"          # ; : < { 0 4 7 / / / / 8 9 y z r.*.G.b.H.I.u.v.d.e.).).).).'.!.~.{.g.g.g.g.].w.+.N 9 8 / / / / ^ ] = * ; #           ",
"          ! > p J.] f b 7 / / / / 9 c z P *.<.b.n.K.L.u.s.d.e.).).).).'.!.~.{.g.g.g.g.5.]...M c 9 / / / / _ ^ ' = > $           ",
"          ~ + 5 6 9 4 ) _ / / | / ] s 0.Q M.b.N.I.g.g.u.s.d.e.).).).).'.!.~.{.g.g.g.g.f.g.h.O.j.o / | / / / / ( - + %           ",
"          ~ + 5 6 4 ^ _ r / / | / 0 e l.R b.n.I.L.f.g.u.s.d.e.).).).).'.!.~.{.g.g.g.g.f.g.h.q.e 0 / | / / / / ) - + %           ",
"          ~ + 5 6 b 7 / / / / 8 9 y z r.*.s.t.g.g.g.g.u.s.d.e.).).).).'.!.~.{.P.Q.R.P.f.g.S.T.U.V.9 8 / / / / ( - + %           ",
"          ~ + 5 6 b 7 / / / / 9 c z.A.B.C.s.!.g.g.g.g.u.s.d.e.).).).).'.!.~.{.R.E.E.R.g.g.W.X.Y.Z.c 9 / / / / ( - + %           ",
"          ~ + 5 6 b 7 / / | / 0 d A Q `. +.+++g.g.g.g.u.s.d.e.).).).).'.!.~.{.{.~.n.t.R.P.{.~.@+#+d 0 / | / / ( - + %           ",
"          ~ + 5 6 b 7 / / | / 0 e B R  +$+%+K.g.g.g.g.u.s.d.e.).).).).'.!.~.{.{.~.&+n.E.R.*+~.=+-+e 0 / | / / ( - + %           ",
"          ~ + 5 6 b 7 / / | / 0 d 0.Q ;+>+~.{.g.g.g.g.u.s.d.e.).).).).'.!.~.{.R.E.,+,+E.R.{.~.@+#+d 0 / | / / ( - + %           ",
"          ~ + 5 6 b 7 / / | / 0 d 0.Q '+>+~.{.g.g.g.g.u.s.d.e.).).).).'.!.~.{.P.Q.{.{.R.P.{.~.@+#+d 0 / | / / ( - + %           ",
")+!+!+    ~ , 5 6 b 7 / / | / 0 d 0.Q ;+>+~.{.g.g.g.g.u.s.d.e.).2.2.).'.!.~.{.g.g.g.g.g.g.{.~.@+#+d 0 / | / / ( { , &           ",
"  !+)+)+  ~ + 5 6 b 7 / / | / 0 d 0.Q ;+>+~.{.g.g.g.g.u.s.d.e.).).).).'.!.~.{.g.g.g.g.g.g.{.~.@+#+d 0 / | / / ( - + %           ",
"  ~+)+{+; : < { ] b 7 / / | / 0 d 0.Q ;+>+~.{.g.g.g.g.u.s.d.e.|.]+^+|.'.!.~.{.g.g.g.g.g.g.{.~.@+#+d 0 / | / / ^ ] = * ; #       ",
"    ~+/+> p q ] f b 7 / / | / 0 d 0.Q ;+>+~.{.g.g.g.g.u.s.(+e._+:+:+_+'.!.~.{.g.g.g.g.g.g.{.~.@+#+d 0 / | / / _ ^ ' = > $       ",
"      ~ + 5 6 9.9.b 7 / / | / ] s 0.Q ;+>+~.{.g.g.g.g.u.s.(+e.'.!.!.'.'.!.~.{.g.g.g.g.g.g.{.~.<+[+}+o / | / / / / ( - + %       ",
"      ~ + 5 6 9.9.b 7 / / | / 0 d 0.Q ;+>+~.{.g.g.g.g.u.s.(+e.'.!.!.'.'.!.~.{.g.g.g.g.g.g.{.~.@+#+d 0 / | / / / / ) - + %       ",
"      ~ + 5 6 9.9.b 7 / / 8 9 y z r.*.;.>+~.{.g.g.g.g.u.s.(+e._+:+:+_+'.!.~.{.g.g.g.g.g.g.{.~.|+1+2+3+9 8 / / / / ( - + %       ",
"      ~ + 5 6 9.9.b 7 / / 9 c z.A.B.C.;+>+~.{.g.g.g.g.u.s.d.e.|.]+^+|.'.!.~.{.g.g.g.g.g.g.{.~.4+5+6+7+c 9 / / / / ( - + %       ",
"      ~ + 5 6 9.9.b 7 | / 0 d 8+Q M.b.9+0+~.{.g.g.g.g.u.s.d.e.).).).).'.!.~.{.g.g.g.g.g.g.{.~.a+'.b+c+d 0 / | / / ( - + %       ",
"      ~ + 5 6 9.9.b 7 | / 0 e l.R b.n.d+e+~.{.g.g.g.g.u.s.d.e.).2.2.).'.!.~.{.g.g.g.g.g.g.{.~.a+3.b+f+e g+/ | / / ( - + %       ",
"      ~ + 5 6 9.9.b 7 | / 0 d 0.Q s.!.{.~.~.{.g.g.g.g.u.s.d.e.).).).).'.!.~.{.g.g.g.g.g.g.{.~.a+'.b+c+d 0 / | / / ( - + %       ",
"      ~ + 5 6 9.9.b 7 | / 0 d 0.Q v.!.{.4.~.{.g.g.g.g.u.s.d.e.).).).).'.!.~.{.g.g.g.g.g.g.{.~.a+'.b+c+d 0 / | / / ( - + %       ",
"      ~ + 5 6 9.9.b 7 | / 0 d 0.Q s.!.{.~.~.{.g.g.g.g.u.s.d.e.).).).).'.!.~.{.g.g.g.g.g.g.{.~.a+'.b+c+d 0 / | / / ( - + %       ",
"      ~ + 5 6 9.9.b 7 | / 0 d 0.Q s.!.{.~.~.{.g.g.g.g.u.s.d.e.).).).).'.!.~.{.g.g.g.g.g.g.{.~.a+'.b+c+d 0 / | / / ( - + %       ",
"      ~ , 5 6 9.9.4 7 | / 0 d 0.Q s.!.{.~.~.{.g.g.g.g.u.s.d.e.).).).).'.!.~.{.g.g.g.g.Q.E.h+i+a+'.b+c+d 0 / | / / ( - , &       ",
"      ~ + 5 6 9.9.b 7 | / 0 d 0.Q s.!.{.~.~.{.g.g.g.g.u.s.d.e.).).).).'.!.~.{.g.g.g.g.E.w.j+k+a+}.b+c+d 0 / | / / ( - + %       ",
"  # ; l+m+5 6 9 4 ) _ | / 0 d 0.Q s.!.{.~.~.{.g.g.g.g.u.s.d.e.).).).).'.!.~.{.g.f.n+E.o+p+q+r+s+t+b+c+d 0 / | / / ( { m+l+; #   ",
"  ; > m+u+5 6 4 k._ r | / 0 d 0.Q s.!.{.~.~.{.g.g.g.g.u.s.d.e.).).).).'.!.~.{.g.g.E.w.v+w+x+y+z+A+b+B+d 0 / | / / ) - u+C+> ;   ",
"  . + D+E+{ ] b 7 / / | / ] s 0.Q s.!.{.~.~.{.g.g.g.g.u.s.d.e.).).).).'.!.~.{.Q.E.F+G+H+H+I+J+z+A+b+B+s o / | / / ^ ] K+L++ .   ",
"  ~ + E+M+] f b 7 / / | / 0 d 0.Q s.!.{.~.~.{.g.g.g.g.u.s.d.e.).).).).'.!.~.{.E.^.p+w+H+H+q+N+s+t+b+c+d 0 / | / / _ ^ 9.K++ ~   ",
"  ~ + 5 6 9.9.b 7 / / 8 9 g t O+P+s.!.{.~.~.{.g.g.g.g.u.s.d.e.).).).).'.!.~.{.E.^.Q i.Q+R+S+F+a+T+b+U+V+W+9 8 / / / / ( - + %   ",
"  ~ + 5 6 9.9.b 7 / / 9 c h u 0.T s.!.{.~.~.{.g.g.g.g.u.s.d.e.).).).).'.!.~.{.*+E.X+X+Y+k+Z+`+a+}. @c+u m c 9 / / / / ) - + %   ",
"  ~ + 5 6 9.9.b 7 | / 0 d .@+@r.B.s.t.{.~.~.{.g.g.g.g.u.s.d.e.).).).).'.!.~.{.g.g.g.g.{.,+@@N.a+'.#@$@%@&@d 0 / | / / ( - + %   ",
"  ~ + 5 6 9.9.b 7 | / 0 e *@w B.=@s.t.{.~.~.{.g.g.g.g.u.s.d.e.).).).).'.!.~.{.g.f.f.f.*+~.N.N.!.'.-@#@;@>@e 0 / | / / ( - + %   ",
"  ~ + 5 6 9.9.4 7 | / 0 d 8+Q M.b.,@I.{.~.~.{.g.g.g.g.u.s.d.e.).).).).'.!.~.{.g.g.g.g.R.E.e+&+!.'.2.).b+U+d 0 / | / / ( - + %   ",
"  '@)@5 6 9.9.b 7 | / 0 d 0.!@b.n.I.L.{.~.~.{.g.g.g.g.u.s.d.e.).).).).'.!.~.{.g.g.g.g.~@R.t.n.!.'.1.1.{@c+d 0 / | / / ( - + % !+",
"  ~ )@5 6 9 4 ) _ | / 0 d 0.Q s.!.g.g.{.~.~.{.g.g.g.g.u.s.d.e.).).).).'.!.~.{.g.g.g.g.g.g.{.~.!.'.2.).b+U+d 0 / | / / ( - + %   ",
"!+'@]@5 6 4 k._ r | / 0 d 0.Q s.!.g.g.{.~.~.{.g.g.g.g.u.s.d.e.).).).).'.!.~.{.g.g.g.g.g.g.{.~.!.'.2.).b+U+d 0 / | / / ( - @.^@!+",
"!+/@@.5 6 b 7 / / | / 0 d 0.Q s.!.g.g.{.~.~.{.g.g.g.g.u.s.d.e.).).).).'.!.~.{.g.g.g.g.g.g.{.~.!.'.2.).b+U+d 0 / | / / ( - + ^@)+",
"~+/@@.5 6 b 7 / / | / 0 d 0.Q s.!.g.g.{.~.~.{.g.g.g.g.u.s.d.e.).).).).'.!.~.{.g.g.g.g.g.g.{.~.!.'.2.).b+U+d 0 / | / / ( - + (@_@",
"  :@@.5 6 b 7 / / | / 0 d 0.Q s.!.g.g.{.~.n.t.R.~@g.g.u.s.d.e.).).).).'.!.~.{.g.g.g.g.g.g.{.~.!.'.2.).b+U+d 0 / | / / ( - + % <@",
"  ~ + 5 6 b 7 / / | / 0 d 0.Q s.!.g.g.{.~.&+n.E.R.g.g.u.s.d.e.).).).).'.!.~.{.g.g.g.g.g.g.{.~.!.'.2.).b+U+d 0 / | / / ( - + %   ",
"  ~ + 5 6 b 7 / / | / 0 d 0.Q s.!.g.g.{.~.N.N.~.{.g.g.u.s.d.e.).).|.^+X [@~.{.g.g.g.g.g.g.{.~.!.'.2.).b+U+d 0 / | / / ( - + %   ",
"  ~ + 5 6 b 7 / / | / 0 d 0.Q s.!.g.g.{.~.N.N.,+{.g.g.u.s.d.e.).).^+:+}@|@~.{.g.g.g.g.g.g.{.~.!.'.2.).b+U+d 0 / | / / ( - + %   ",
"  ~ + 5 6 b 7 / / | / 0 d 0.Q s.!.g.g.{.~.N.N.~.{.g.g.u.s.d.e.).).'.!.N.@@~.{.g.g.g.g.g.g.{.~.!.'.2.).b+U+d 0 / | / / ( - + %   "};
