/* XPM */
static char * door1_xpm[] = {
"64 64 665 2",
"  	c #72751B",
". 	c #6B492B",
"+ 	c #6D4A2D",
"@ 	c #6F4C2E",
"# 	c #6F4E30",
"$ 	c #633F22",
"% 	c #704E31",
"& 	c #6F4F32",
"* 	c #6F4E31",
"= 	c #6F4F31",
"- 	c #6B472A",
"; 	c #6D492C",
"> 	c #643F23",
", 	c #8A714E",
"' 	c #8B714F",
") 	c #8A714F",
"! 	c #886C4C",
"~ 	c #876C4B",
"{ 	c #5A3117",
"] 	c #866B4B",
"^ 	c #5C361B",
"/ 	c #654226",
"( 	c #644126",
"_ 	c #634025",
": 	c #6E4C2F",
"< 	c #6A472A",
"[ 	c #907756",
"} 	c #907857",
"| 	c #917858",
"1 	c #603A1E",
"2 	c #8A704F",
"3 	c #866B4A",
"4 	c #593117",
"5 	c #876B4B",
"6 	c #5B351A",
"7 	c #795C3E",
"8 	c #785C3E",
"9 	c #613D22",
"0 	c #634026",
"a 	c #663F25",
"b 	c #61391F",
"c 	c #8B7353",
"d 	c #8D7453",
"e 	c #8E7653",
"f 	c #917958",
"g 	c #998263",
"h 	c #9A8364",
"i 	c #988162",
"j 	c #947C5C",
"k 	c #937C5C",
"l 	c #5E381D",
"m 	c #957E5F",
"n 	c #957E5E",
"o 	c #947E5E",
"p 	c #8E7656",
"q 	c #785B3E",
"r 	c #76593B",
"s 	c #5A351B",
"t 	c #5F3B21",
"u 	c #69452A",
"v 	c #836848",
"w 	c #5F3A1E",
"x 	c #896F4F",
"y 	c #9B8466",
"z 	c #9B8567",
"A 	c #9B8566",
"B 	c #613C1F",
"C 	c #775A39",
"D 	c #775B39",
"E 	c #816645",
"F 	c #5F391D",
"G 	c #795E3C",
"H 	c #795D3C",
"I 	c #785D3C",
"J 	c #7D6240",
"K 	c #5C371B",
"L 	c #8E7556",
"M 	c #8D7556",
"N 	c #8D7455",
"O 	c #8C7455",
"P 	c #755739",
"Q 	c #613E22",
"R 	c #705135",
"S 	c #5E3B21",
"T 	c #6B492C",
"U 	c #886F4E",
"V 	c #876E4D",
"W 	c #5F3B1F",
"X 	c #977F61",
"Y 	c #765838",
"Z 	c #7F6443",
"` 	c #7F6342",
" .	c #623D20",
"..	c #7D6241",
"+.	c #775B3A",
"@.	c #775A3A",
"#.	c #7E6344",
"$.	c #603B1F",
"%.	c #7E6241",
"&.	c #7E6240",
"*.	c #634124",
"=.	c #674628",
"-.	c #664528",
";.	c #806546",
">.	c #7A5F40",
",.	c #705035",
"'.	c #6F5134",
").	c #5D3B20",
"!.	c #6A452A",
"~.	c #84694A",
"{.	c #886E4D",
"].	c #967D5F",
"^.	c #613C20",
"/.	c #876F4F",
"(.	c #7F6444",
"_.	c #7F6343",
":.	c #633D21",
"<.	c #7D6141",
"[.	c #674427",
"}.	c #795E3B",
"|.	c #684629",
"1.	c #83694A",
"2.	c #7B6140",
"3.	c #7B6040",
"4.	c #7A6040",
"5.	c #634326",
"6.	c #886F51",
"7.	c #715336",
"8.	c #715435",
"9.	c #5A361D",
"0.	c #7F8226",
"a.	c #694529",
"b.	c #846A4A",
"c.	c #937B5C",
"d.	c #785C3B",
"e.	c #623D21",
"f.	c #765837",
"g.	c #876E4F",
"h.	c #7F6544",
"i.	c #674527",
"j.	c #7C6141",
"k.	c #7C613E",
"l.	c #69482A",
"m.	c #826848",
"n.	c #7B6041",
"o.	c #654428",
"p.	c #7C6040",
"q.	c #866C4E",
"r.	c #715335",
"s.	c #5B371E",
"t.	c #787B21",
"u.	c #654127",
"v.	c #7B5F40",
"w.	c #8B7254",
"x.	c #775B3B",
"y.	c #623E22",
"z.	c #755737",
"A.	c #886E4E",
"B.	c #806545",
"C.	c #684628",
"D.	c #7A5E3D",
"E.	c #7C613F",
"F.	c #69492B",
"G.	c #7C6140",
"H.	c #7B6141",
"I.	c #69482C",
"J.	c #795F3F",
"K.	c #7A603F",
"L.	c #856C4E",
"M.	c #656C17",
"N.	c #674429",
"O.	c #8B7455",
"P.	c #765B3B",
"Q.	c #644225",
"R.	c #806445",
"S.	c #6B4A2B",
"T.	c #7D6243",
"U.	c #7D6140",
"V.	c #6A492C",
"W.	c #6C4C2F",
"X.	c #7B603F",
"Y.	c #7A603E",
"Z.	c #846B4D",
"`.	c #5A361E",
" +	c #664329",
".+	c #8A7254",
"++	c #765A3A",
"@+	c #68482A",
"#+	c #806544",
"$+	c #684729",
"%+	c #6A4A2D",
"&+	c #6D4E31",
"*+	c #7A5F3E",
"=+	c #866E50",
"-+	c #6D4E33",
";+	c #58341C",
">+	c #644026",
",+	c #876E50",
"'+	c #69482B",
")+	c #674629",
"!+	c #7F6441",
"~+	c #7E6341",
"{+	c #6B4A2D",
"]+	c #7A6140",
"^+	c #6E5032",
"/+	c #553119",
"(+	c #7F8124",
"_+	c #644128",
":+	c #866D4F",
"<+	c #755A3A",
"[+	c #6B4B2D",
"}+	c #6A492B",
"|+	c #826746",
"1+	c #7D6341",
"2+	c #6A4B2D",
"3+	c #6E5033",
"4+	c #7A5E3E",
"5+	c #5C371E",
"6+	c #75593A",
"7+	c #7E6343",
"8+	c #7E6445",
"9+	c #664025",
"0+	c #6C4C2E",
"a+	c #836847",
"b+	c #653F25",
"c+	c #6C4F31",
"d+	c #795E3E",
"e+	c #785E3E",
"f+	c #512B14",
"g+	c #686F16",
"h+	c #5A351C",
"i+	c #5C361D",
"j+	c #5E371E",
"k+	c #603920",
"l+	c #603A21",
"m+	c #623C22",
"n+	c #633D23",
"o+	c #643E23",
"p+	c #643E24",
"q+	c #938472",
"r+	c #694228",
"s+	c #6B4B2E",
"t+	c #836947",
"u+	c #928371",
"v+	c #633D24",
"w+	c #623D23",
"x+	c #613B23",
"y+	c #613B21",
"z+	c #5E3920",
"A+	c #5E371F",
"B+	c #5C361E",
"C+	c #5A351D",
"D+	c #512B13",
"E+	c #573219",
"F+	c #7D6C55",
"G+	c #7C6C56",
"H+	c #81715C",
"I+	c #81705B",
"J+	c #81715B",
"K+	c #867661",
"L+	c #7D6D56",
"M+	c #8E7F6A",
"N+	c #826947",
"O+	c #7A6953",
"P+	c #857561",
"Q+	c #7F6F5A",
"R+	c #7F6F59",
"S+	c #7F6E59",
"T+	c #7F705B",
"U+	c #7B6B55",
"V+	c #7C6A55",
"W+	c #512A13",
"X+	c #58321A",
"Y+	c #705B43",
"Z+	c #715B43",
"`+	c #75624B",
" @	c #75624C",
".@	c #76634D",
"+@	c #7B6954",
"@@	c #7B6A54",
"#@	c #7C6C55",
"$@	c #7D6C56",
"%@	c #8C7D68",
"&@	c #674126",
"*@	c #795E3F",
"=@	c #7E6443",
"-@	c #7A6A53",
";@	c #796852",
">@	c #786651",
",@	c #73614A",
"'@	c #73604A",
")@	c #72604A",
"!@	c #6F5A43",
"~@	c #6F5943",
"{@	c #573119",
"]@	c #705A43",
"^@	c #715A43",
"/@	c #76634C",
"(@	c #7A6853",
"_@	c #7A6854",
":@	c #562E15",
"<@	c #68472A",
"[@	c #552D15",
"}@	c #796851",
"|@	c #776650",
"1@	c #522B14",
"2@	c #573019",
"3@	c #532C15",
"4@	c #542C15",
"5@	c #542D15",
"6@	c #552E15",
"7@	c #7C6B55",
"8@	c #6F5032",
"9@	c #826948",
"0@	c #7A6952",
"a@	c #522C15",
"b@	c #563018",
"c@	c #644228",
"d@	c #644227",
"e@	c #654429",
"f@	c #5D391F",
"g@	c #6E4F31",
"h@	c #7D6343",
"i@	c #836A49",
"j@	c #6A4A2C",
"k@	c #694A2C",
"l@	c #69492C",
"m@	c #68492C",
"n@	c #68482B",
"o@	c #67482B",
"p@	c #72751C",
"q@	c #542E16",
"r@	c #735839",
"s@	c #745839",
"t@	c #5E3A20",
"u@	c #6E4F32",
"v@	c #785D3F",
"w@	c #68472B",
"x@	c #856B4B",
"y@	c #79603F",
"z@	c #795F40",
"A@	c #6F5234",
"B@	c #735939",
"C@	c #735838",
"D@	c #725738",
"E@	c #735738",
"F@	c #634126",
"G@	c #796040",
"H@	c #6D4F31",
"I@	c #67462A",
"J@	c #866D4C",
"K@	c #7C6240",
"L@	c #694A2D",
"M@	c #7C6242",
"N@	c #7A5F3F",
"O@	c #6E5132",
"P@	c #735739",
"Q@	c #745838",
"R@	c #785F3F",
"S@	c #785D3D",
"T@	c #7D6242",
"U@	c #856D4C",
"V@	c #69492D",
"W@	c #795F3E",
"X@	c #512C14",
"Y@	c #785C3C",
"Z@	c #775D3D",
"`@	c #856C4C",
" #	c #6B4B2F",
".#	c #7C6142",
"+#	c #785F3E",
"@#	c #725638",
"##	c #725538",
"$#	c #512B15",
"%#	c #775C3C",
"&#	c #775C3D",
"*#	c #765B3D",
"=#	c #765D3D",
"-#	c #765C3D",
";#	c #66452A",
">#	c #6C4D30",
",#	c #7C6143",
"'#	c #6D5032",
")#	c #715637",
"!#	c #715537",
"~#	c #522B15",
"{#	c #72741C",
"]#	c #725637",
"^#	c #765A3B",
"/#	c #6D4E30",
"(#	c #765A3C",
"_#	c #765B3C",
":#	c #654528",
"<#	c #856B4C",
"[#	c #6C4F30",
"}#	c #705537",
"|#	c #512C15",
"1#	c #735638",
"2#	c #755A3B",
"3#	c #5B351C",
"4#	c #613B22",
"5#	c #5F3920",
"6#	c #6F5133",
"7#	c #715437",
"8#	c #715436",
"9#	c #705436",
"0#	c #74593A",
"a#	c #6C4E30",
"b#	c #75593B",
"c#	c #5D371E",
"d#	c #8E806B",
"e#	c #8C7E69",
"f#	c #8C7E68",
"g#	c #8B7D68",
"h#	c #5D381F",
"i#	c #6F5132",
"j#	c #785C3D",
"k#	c #705435",
"l#	c #6F5435",
"m#	c #502B15",
"n#	c #6B4D30",
"o#	c #5E381F",
"p#	c #75654E",
"q#	c #75644E",
"r#	c #75634D",
"s#	c #765C3C",
"t#	c #6F5335",
"u#	c #6F5235",
"v#	c #502A14",
"w#	c #6B4D2F",
"x#	c #5B351D",
"y#	c #73614B",
"z#	c #74614C",
"A#	c #74624C",
"B#	c #74604A",
"C#	c #5C351E",
"D#	c #6D4F32",
"E#	c #66472A",
"F#	c #6F5135",
"G#	c #502913",
"H#	c #6B4C2F",
"I#	c #715C46",
"J#	c #715D47",
"K#	c #705C46",
"L#	c #74583A",
"M#	c #65452A",
"N#	c #6E5134",
"O#	c #6D563E",
"P#	c #6D553E",
"Q#	c #6C553D",
"R#	c #6B553D",
"S#	c #6D5134",
"T#	c #4F2912",
"U#	c #715536",
"V#	c #6A4C2E",
"W#	c #7A6142",
"X#	c #705637",
"Y#	c #5F3922",
"Z#	c #512A14",
"`#	c #603B22",
" $	c #644529",
".$	c #6D5033",
"+$	c #6D5034",
"@$	c #4E2912",
"#$	c #4F2812",
"$$	c #58321B",
"%$	c #59331C",
"&$	c #5B341D",
"*$	c #5B361E",
"=$	c #5D3820",
"-$	c #5E3921",
";$	c #8E806D",
">$	c #5F3921",
",$	c #58341B",
"'$	c #8E7F6D",
")$	c #5E3821",
"!$	c #5E3820",
"~$	c #5D3720",
"{$	c #5D371F",
"]$	c #5A351E",
"^$	c #5A341D",
"/$	c #58331C",
"($	c #57321B",
"_$	c #4E2812",
":$	c #796752",
"<$	c #7D6D58",
"[$	c #7C6B57",
"}$	c #7C6C57",
"|$	c #847460",
"1$	c #857661",
"2$	c #776751",
"3$	c #8B7D69",
"4$	c #624125",
"5$	c #81715D",
"6$	c #7C6B56",
"7$	c #7B6A56",
"8$	c #786751",
"9$	c #796751",
"0$	c #6C5640",
"a$	c #6D5740",
"b$	c #705D47",
"c$	c #715E48",
"d$	c #75634E",
"e$	c #75644F",
"f$	c #76644F",
"g$	c #897B67",
"h$	c #725839",
"i$	c #624126",
"j$	c #603A22",
"k$	c #73614D",
"l$	c #6F5C47",
"m$	c #6C563F",
"n$	c #6C5540",
"o$	c #6F5D48",
"p$	c #705D48",
"q$	c #75634F",
"r$	c #725739",
"s$	c #624227",
"t$	c #74634E",
"u$	c #73614C",
"v$	c #6F5C46",
"w$	c #6C553F",
"x$	c #4F2913",
"y$	c #776651",
"z$	c #624127",
"A$	c #614126",
"B$	c #725737",
"C$	c #6F5E49",
"D$	c #4F2813",
"E$	c #613C21",
"F$	c #654427",
"G$	c #654529",
"H$	c #59361D",
"I$	c #66482B",
"J$	c #66462A",
"K$	c #614026",
"L$	c #694B2E",
"M$	c #603F25",
"N$	c #644428",
"O$	c #633E21",
"P$	c #4D2712",
"Q$	c #6E5133",
"R$	c #59361E",
"S$	c #6F5436",
"T$	c #67492C",
"U$	c #614025",
"V$	c #5C3920",
"W$	c #604025",
"X$	c #67472B",
"Y$	c #765B3A",
"Z$	c #603E24",
"`$	c #6B4E31",
" %	c #6B4D31",
".%	c #6B4C31",
"+%	c #5F3E23",
"@%	c #6F5336",
"#%	c #705536",
"$%	c #613F25",
"%%	c #57351D",
"&%	c #603E25",
"*%	c #5F3E24",
"=%	c #532F18",
"-%	c #6E5235",
";%	c #5F3D23",
">%	c #5E3D23",
",%	c #532F19",
"'%	c #58341E",
")%	c #59361F",
"!%	c #5C3822",
"~%	c #5C3922",
"{%	c #5B3821",
"]%	c #5A3720",
"^%	c #5A361F",
"/%	c #57331C",
"(%	c #55311A",
"_%	c #553019",
":%	c #542F19",
"<%	c #522D17",
"[%	c #532E17",
"}%	c #57331B",
"|%	c #57341C",
"1%	c #58351D",
"2%	c #5A351F",
"3%	c #59351D",
"4%	c #59341D",
"5%	c #58341D",
"6%	c #56311A",
"7%	c #543019",
"8%	c #542F18",
"9%	c #73624C",
"0%	c #75624D",
"a%	c #76634E",
"b%	c #766450",
"c%	c #776551",
"d%	c #786652",
"e%	c #796854",
"f%	c #7A6A56",
"g%	c #7D6F5D",
"h%	c #7F7262",
"i%	c #807363",
"j%	c #807362",
"k%	c #7D6D5B",
"l%	c #7B6B58",
"m%	c #7A6956",
"n%	c #796855",
"o%	c #776654",
"p%	c #776653",
"q%	c #756552",
"r%	c #746452",
"s%	c #746451",
"t%	c #736351",
"u%	c #776450",
"v%	c #827360",
"w%	c #857966",
"x%	c #867966",
"y%	c #8C7F6E",
"z%	c #948776",
"A%	c #8C7F6D",
"B%	c #857865",
"C%	c #857765",
"D%	c #857764",
"E%	c #4D2711",
"F%	c #66523F",
"G%	c #675240",
"H%	c #6A5844",
"I%	c #6B5844",
"J%	c #6B5845",
"K%	c #6C5946",
"L%	c #6B5946",
"M%	c #6B5947",
"N%	c #6C5A48",
"O%	c #6C5B48",
"P%	c #736452",
"Q%	c #736350",
"R%	c #6D5C48",
"S%	c #6D5B48",
"T%	c #6C5B47",
"U%	c #6C5A47",
"V%	c #6A5845",
"W%	c #695542",
"X%	c #654F3C",
"Y%	c #65503D",
"Z%	c #65503C",
"`%	c #644F3B",
" &	c #644E3B",
".&	c #6A5642",
"+&	c #6B5945",
"@&	c #6C5B49",
"#&	c #695541",
"$&	c #654F3D",
"%&	c #685642",
"&&	c #695642",
"*&	c #6C5945",
"=&	c #746453",
"-&	c #6A5744",
";&	c #6A5743",
">&	c #654F3B",
",&	c #644F3C",
"'&	c #6B5846",
")&	c #746553",
"!&	c #746350",
"~&	c #6C5C48",
"{&	c #6C5C47",
"]&	c #B3B0A9",
"^&	c #636917",
"                                                                                                                                ",
"                                                                                                                                ",
"                                                                                                                                ",
"                                                                                                                                ",
"                                                      . + + @ # $ # % & * =                                                     ",
"                                              - ; - > , ' ) ! ~ { ~ ~ ] ] ] ^ / ( _                                             ",
"                                          : < [ } | 1 2 ' ) ! 3 4 ~ 5 ] ] ] 6 7 7 8 9 0                                         ",
"                                      a b c d e [ f 1 g h i j k l m m n o p 6 7 7 8 q r s t                                     ",
"                                    u v w x y y z A B C D D C E F G G H I J K L M N O P Q R S                                   ",
"                                  T U V W X Y x Z `  .....+.@.#.$.G G %.%.&.*.=.-.;.>.O Q ,.'.).                                ",
"                                !.~.{.].^.Y Y /.(._.:.<.<.<.@.#.[.G }.%.%.&.|.-.1.2.3.4.5.6.7.8.9.        0.0.                  ",
"                                a.b.c.d.e.f.g.E h.(.i.<.j.<.j.#.[.G %.%.&.k.l.m.2.n.3.4.o.p.q.r.s.0.    t.0.                    ",
"                              u.v.w.x.d.y.z.A.B.E B.[.j.j.j.j.#.C.D.%.%.&.E.F.G.H.n.3.4.I.J.K.L.R s.  t.t.M.                    ",
"                              N.O.P.x.d.Q.v (.h.h.R.S.j.j.j.n.T.|.&.&.&.J U.V.j.3.3.4.>.W.X.K.Y.Z.`.  t.t.M.                    ",
"                             +v..+++x.x.@+#.#+#+#+(.. 3.3.3.3.B.$+&.&.U.....%+H.3.3.4.4.&+K.K.*+=+-+;+M.M.                      ",
"                            >+,+++++++x.'+#.(.#+#+(.. 3.3.3.3.B.)+!+~+~+~+~+{+n.n.2.]+4.^+K.Y.*+*+.+/+                          ",
"                        (+  _+:+<+++++P.[+_.(.(.#+(.}+3.3.3.3.#+)+|+~+~+~+1+2+3.2.2.4.4.3+K.*+*+4+.+/+                          ",
"                      t.t.  5+6+6+<+++++[+7+7+8+9+#.0+>.>.>.>.(.}+a+~+~+~+1+%+3.b+]+4.4.c+K.*+4+d+e+f+                          ",
"                (+    t.g+  h+i+i+j+k+l+m+n+o+p+q+r+s+>.>.>.>.(.'+t+~+~+1+J %+b+u+v+w+x+y+z+A+B+C+C+D+                          ",
"                  (+t.g+  t.E+F+G+H+I+J+K+K+K+K+L+M+9+>.>.>.>.(.l.N+..1+J J b+u+O+P+P+Q+R+S+S+T+U+V+W+                          ",
"                g+t.t.    t.X+Y+Z+`+ @.@O++@@@#@$@F+%@&@J.*@*@=@l.m.J J J b+u+-@O+;@>@,@'@'@'@)@!@~@W+                          ",
"                  g+t.    t.{@]@^@`+`+/@(@_@+@U+$@F+:@*@*@*@*@7+<@m.~+~+1+1+[@O+O+}@|@'@'@'@)@)@~@~@1@                          ",
"                    g+    g+2@3@3@4@5@5@5@[@6@[@7@6@8@*@*@*@*@7+<@9@~+......%+5@0@5@5@3@3@3@a@1@1@1@1@                          ",
"                            b@c@d@d@e@I.f@%+%+s+6@g@8@*@*@*@*@h@<@i@1+......%+j@5@k@l@l@l@m@m@n@o@o@f+                          ",
"                          p@q@r@s@s@s@s@t@>.4.3.%+u@u@v@v@v@v@T.w@x@........%+y@k@>.>.z@A@B@s@C@D@D@f+p@                        ",
"                          p@q@E@C@s@s@s@F@n.z@G@>.H@g@v@v@v@v@T.I@J@J J J K@L@M@*@N@J.J.O@P@E@D@D@D@f+p@                        ",
"                          p@q@E@E@E@Q@Q@k@3.v@*@R@%+g@S@S@S@S@T@I@U@J K@K@G.V@M@W@J.J.J.^+E@E@D@D@D@X@p@                        ",
"                          p@q@E@E@E@E@E@k@j.Y@8 8 V@g@S@Z@Z@S@M@I@`@K@G.G.G. #.#e++#+#e+^+@#@#######$#p@                        ",
"                          p@a@D@E@E@E@E@l@H.%#Y@Y@&#&+*#=#-#-#M@;#`@G.G.G.G.>#,#e+S@S@Z@'#)#)#!#!#!#~#{#                        ",
"t.(+(+                    {#a@]#D@D@E@E@l@n.P.P.P.^#/#(#_#*#*#.#:#<#X.X.2.2.[#.#%#S@Z@Z@H@!#!#!#!#}#|#{#                        ",
"  (+t.t.                  {#~#]#D@@#1#E@l@n.2#6+++++/#^#^#^#3#l+l+4#5#Y.Y.Y.6#j.%#I Z@S@>#7#8#8#9#9#$#{#                        ",
"  g+t.t.                    ~#]#]#]#]#E@l@n.2#0#s@s@a#b#^#c#d#e#e#f#g#h#*+*+i#j.%#j#Z@&#>#k#k#l#l#l#$#                          ",
"    g+g+                    m#]#]#]#]#]#n#>.2#r@E@E@>#b#b#o#p#q#q#p#r#B+*+*+'#H.P.s#P.P.o@t#t#t#t#u#m#                          ",
"                            v#)#)#]#]#]#w#>.]#@#E@E@>#b#b#x#y#z#W+A#B#C#0#W@D#3.<+++<+<+E#t#F#F#u#u#v#                          ",
"                            G#!#)#)#]#]#H#>.]#]#]#1#>#6+b#1@I#J#W+J#K#1@0#L#a#3.^#^#^#^#M#N#N#N#N#F#G#                          ",
"                            G#!#!#)#)#)#H#>.]#]#]#]#H#r@L#W+O#P#O#Q#R#G#s@s@H#3.x.P.^#2#M#N#N#N#S#S#G#                          ",
"                            T#U#!#!#!#!#V#W#X#)#Y#)#H#r@r@n@G#G#G#Z#G#n@s@s@w#J.`#P.P.^# $N#.$+$+$.$@$                          ",
"                            #$$$$$%$&$*$h#=$z+-$;$>$H#r@r@r@n@n@,$n@n@s@r@r@a#`#'$)$!$~${$]$^$/$($($_$                          ",
"                            _$;@:$<$[$}$|$|$|$1$2$3$-$r@r@r@r@r@4$%#s@r@P@b#`#'$q#5$5$6$7$7$7$}$8$9$_$                          ",
"                            _$0$a$b$c$c$d$e$f$|@8$8$g$-$)#h$h$h$i$r@P@P@L#j$'$q#q#q#k$l$l$l$l$l$m$m$_$                          ",
"                            _$0$n$o$p$c$d$q$f$|@8$8$v#@#!#r$r$r$s$D@D@E@P@k#G#q#q#t$u$l$v$v$v$v$w$m$_$                          ",
"                            _$x$x$x$G#G#G#G#G#G#y$G#z$@#U#!#D@D@A$B$D@B$B$k#z$G#C$x$x$x$x$x$x$x$D$x$_$                          ",
"                            _$E$y.*.F$G$H$I$k@L@G#J$i$]#U#U#U#D@K$B$9#k#k#l#A$L$x$G$G$G$M$N$*.$ O$$ P$                          ",
"                            _$Q$Q$^+^+Q$R$S$S$S$T$9#U$U#U#U#U#U#V$B$l#t#t#t#W$2#X$Y$Y$Y$Z$`$ %.%.%.%P$                          ",
"                            _$Q$^+^+^+Q$+%@%@%@%@%#%$%U#U##%U#U#%%@%t#l#t#t#&%2#^#^#++<+*% % %.%.%.%P$                          ",
"                            _$Q$Q$Q$Q$Q$+%@%@%@%@%S$*%9##%#%9#9#=%@%t#t#-%t#;%2#2#<+6+<+>% % %.%.%.%P$                          ",
"                            _$,%'%)%!%!%~%{%]%]%)%^%/%(%_%:%<%_$|#[%=%(%}%|%1%2%3%4%;+5%6%_%7%8%P$P$P$                          ",
"                            _$.@9%0%a%b%c%c%y$d%e%e%e%e%e%f%g%h%_$i%j%k%l%m%n%n%o%p%q%r%s%s%t%t%s%u%P$                          ",
"                            _$v%w%x%x%x%x%x%x%x%x%y%y%y%y%y%z%z%_$z%z%y%A%y%A%B%B%B%B%B%B%C%D%D%D%D%E%  t.(+(+                  ",
"                            _$F%F%F%F%G%G%G%G%H%I%J%K%L%M%N%O%P%_$Q%R%R%R%S%T%U%K%V%W%W%W%X%Y%Z%`% &P$t.t.(+                    ",
"                            _$F%F%F%F%F%F%G%.&H%I%+&K%L%L%N%@&r%_$Q%R%R%R%T%T%T%K%+&W%W%#&X%X%X% & &P$t.t.g+                    ",
"                            _$$&$&$&F%%&%&%&&&H%H%+&*&L%L%N%@&=&_$Q%R%R%R%O%T%T%-&-&;&W%W%#&#&>& & &P$t.g+t.(+                  ",
"                            _$,&$&,&%&%&%&%&%&H%I%'&K%L%U%N%N%)&_$!&R%~&R%~&{&T%K%-&;&W%W%#&#&#& & &E%g+t.t.g+                  ",
"                            P$P$_$_$_$_$_$_$_$_$_$_$_$_$_$_$_$_$_$_$_$_$_$_$_$_$P$P$P$P$P$P$P$P$E%E%E%g+t.g+                    ",
"  (+(+        t.t.                                                              (+(+t.                                        (+",
"    (+t.t.  (+(+                                                                  (+t.t.                                        ",
"(+(+g+t.g+t.t.g+                                                                  g+t.t.                                  t.(+(+",
"(+t.t.g+g+t.t.g+                                                                    g+g+                                    (+t.",
"g+t.t.    t.g+                                                                                                              g+]&",
"  g+t.                                                                                                                        ^&",
"                                                                                                                                ",
"                                                                                                                                ",
"                                                                                                                                ",
"                                                                                                                                "};
