/* XPM */
static char * floor_xpm[] = {
"64 64 8 1",
" 	c #72751B",
".	c #787B21",
"+	c #7F8226",
"@	c #656C17",
"#	c #7F8124",
"$	c #686F16",
"%	c #B3B0A9",
"&	c #636917",
"                                                                ",
"                                                                ",
"                                                                ",
"                                                                ",
"                                                                ",
"                                                                ",
"                                                                ",
"                                                                ",
"                                                                ",
"                                                                ",
"                                               .+    ++         ",
"                                                ++  .+          ",
"                                                .. ..@          ",
"                                                @@ ..@          ",
"                                                   @@           ",
"                                                                ",
"            #                                                   ",
"           ..  #..                                              ",
"        #  .$ .##                                               ",
"         #.$ ..#$                                               ",
"        $..  ..$.#                                              ",
"         $.  .$..$                                              ",
"          $  $$.$                                               ",
"                                                                ",
"                                                                ",
"                                                                ",
"                                                                ",
"                                                                ",
"                                                                ",
".##                                                             ",
" #..                                                            ",
" $..                                                            ",
"  $$                                                            ",
"                                                                ",
"                                                                ",
"                                                                ",
"                                                                ",
"                                                                ",
"                                                                ",
"                                                                ",
"                                                                ",
"                      .                                         ",
"                     ##                                         ",
"                    .#$                                         ",
"                    ..                                          ",
"                    $$                                          ",
"                                                                ",
"                                                 #              ",
"                                                ..  .##         ",
"                                             #  .$ ..#          ",
"                                             $.. $...$          ",
"                                             $..  ..$.#         ",
"                                              $$  .$..$         ",
"                                                  $$.$          ",
" ##    ..                               ##.                    #",
"  #.. ##                                 #..                    ",
"##$.$..$                                 $..                 .##",
"#..$$..$                                  $$                  #.",
"$..  .$                                                       $%",
" $.                                                            &",
"                                                                ",
"                                                                ",
"                                                                ",
"                                                                "};
