/* XPM */
static char * floor_xpm[] = {
"64 64 174 2",
"  	c #72751B",
". 	c #050503",
"+ 	c #000000",
"@ 	c #060504",
"# 	c #75665D",
"$ 	c #C3AC9C",
"% 	c #62564D",
"& 	c #544942",
"* 	c #DDC3B2",
"= 	c #D2B9A9",
"- 	c #9D8A7E",
"; 	c #827267",
"> 	c #D0B8A7",
", 	c #87776C",
"' 	c #AE998B",
") 	c #D7BEAD",
"! 	c #F0D4C1",
"~ 	c #DAC0AF",
"{ 	c #302924",
"] 	c #EDCCB6",
"^ 	c #958377",
"/ 	c #EED0BB",
"( 	c #EFD0BC",
"_ 	c #A49083",
": 	c #010101",
"< 	c #F0D3C0",
"[ 	c #E0C3AF",
"} 	c #D9C0AE",
"| 	c #37302B",
"1 	c #787B21",
"2 	c #7F8226",
"3 	c #0B0A07",
"4 	c #A69285",
"5 	c #656C17",
"6 	c #E1CABE",
"7 	c #E5C8B7",
"8 	c #EFD3C0",
"9 	c #A59183",
"0 	c #4C413B",
"a 	c #F2F2F2",
"b 	c #E1CBC0",
"c 	c #E2C5B4",
"d 	c #EED2C0",
"e 	c #BDA496",
"f 	c #040302",
"g 	c #EDE7E4",
"h 	c #DDC0B1",
"i 	c #EDD1BE",
"j 	c #EBCEBC",
"k 	c #DFC5B7",
"l 	c #6D6662",
"m 	c #7F8124",
"n 	c #EFEBE9",
"o 	c #E0C6B7",
"p 	c #EACEBC",
"q 	c #E9CDBB",
"r 	c #E0C8BC",
"s 	c #EFECEA",
"t 	c #B6B6B6",
"u 	c #F1F1F1",
"v 	c #EDE8E5",
"w 	c #E9CCBA",
"x 	c #E8CCBA",
"y 	c #E0C7B9",
"z 	c #F0EEED",
"A 	c #DBDBDB",
"B 	c #323232",
"C 	c #686F16",
"D 	c #EBEBEB",
"E 	c #EFEFEF",
"F 	c #EEE9E7",
"G 	c #E0C9BE",
"H 	c #DDBFAF",
"I 	c #707070",
"J 	c #090806",
"K 	c #E8E8E8",
"L 	c #E3CFC4",
"M 	c #E5D3CA",
"N 	c #030202",
"O 	c #DEC3B4",
"P 	c #F0EDEB",
"Q 	c #EDEDED",
"R 	c #F1F1F0",
"S 	c #E4D2C9",
"T 	c #E6D6CE",
"U 	c #050505",
"V 	c #4E4533",
"W 	c #4E4739",
"X 	c #E9E9E9",
"Y 	c #ECE5E1",
"Z 	c #DEC4B5",
"` 	c #5C5C5C",
" .	c #54482F",
"..	c #6E5F3B",
"+.	c #60553B",
"@.	c #E2CDC2",
"#.	c #E5D5CC",
"$.	c #D4D4D4",
"%.	c #30302F",
"&.	c #84703D",
"*.	c #413B2F",
"=.	c #ECE5E2",
"-.	c #DFC5B6",
";.	c #EEEAE8",
">.	c #E3E3E3",
",.	c #343435",
"'.	c #7F6C3C",
").	c #312E29",
"!.	c #DDC1B1",
"~.	c #E6D7D0",
"{.	c #A8A8A8",
"].	c #5D5D5D",
"^.	c #836F3D",
"/.	c #313131",
"(.	c #DDD6D3",
"_.	c #E5E2E1",
":.	c #E7E7E7",
"<.	c #E4E4E4",
"[.	c #7C7C7C",
"}.	c #565656",
"|.	c #424242",
"1.	c #070605",
"2.	c #DFDFDF",
"3.	c #DEDEDE",
"4.	c #292929",
"5.	c #4B4B4B",
"6.	c #161616",
"7.	c #E8DBD5",
"8.	c #CFC7C2",
"9.	c #DACDC6",
"0.	c #E3DEDB",
"a.	c #DDC0B0",
"b.	c #DEC1B1",
"c.	c #E0C3B2",
"d.	c #CFB4A5",
"e.	c #A58F83",
"f.	c #DABEAE",
"g.	c #EADFDA",
"h.	c #020201",
"i.	c #0A0906",
"j.	c #535353",
"k.	c #DBBFAF",
"l.	c #CAB4A5",
"m.	c #484848",
"n.	c #A0A0A0",
"o.	c #DEC2B2",
"p.	c #B0A095",
"q.	c #6F6F6F",
"r.	c #E8CDBB",
"s.	c #7E6F64",
"t.	c #D9BFAE",
"u.	c #ADAAA8",
"v.	c #C0B8B4",
"w.	c #A28B7C",
"x.	c #A1897A",
"y.	c #968276",
"z.	c #CBCBCB",
"A.	c #040403",
"B.	c #393939",
"C.	c #383838",
"D.	c #797979",
"E.	c #CECECE",
"F.	c #393938",
"G.	c #393838",
"H.	c #030302",
"I.	c #080705",
"J.	c #322F27",
"K.	c #464238",
"L.	c #4F4B40",
"M.	c #5E594C",
"N.	c #B3B0A9",
"O.	c #636917",
"P.	c #9F9F9F",
"Q.	c #5C574A",
"                                                                                                                                ",
"                                                                                                                                ",
"                                                          .                                                                     ",
"                                                              + + + + + @                                                       ",
"                                                              + # $ $ % +                                                       ",
"                                                              & * = = - +                                                       ",
"                                                              ; > , + + +                                                       ",
"                                                              ' ) ! ~ { +                                                       ",
"                                                                ] ! ! ^ +                                                       ",
"                                                                / ( ! _ :                                                       ",
"                                                                < [ } |                       1 2         2 2                   ",
"                                                                ! ! ^ 3                         2 2     1 2                     ",
"                                                              ! ! ! ! 4                         1 1   1 1 5                     ",
"                                                          6 7 ! ! ! ! 8 9 0                     5 5   1 1 5                     ",
"                                                      a a b c ! ! ! ! ! d e f                         5 5                       ",
"                                                    a a a g h i ! ! ! ! j k l f                                                 ",
"                        m                           a a a a n o p ! ! q r s t + f                                               ",
"                      1 1     m 1 1               a a a u u a v o w x y z a A B +                                               ",
"                m     1 C   1 m m                 a a a D E a a F G H n a a a I + J                                             ",
"                  m 1 C   1 1 m C               a a a a K a a a a L M a a a a I + N                                             ",
"                C 1 1     1 1 C 1 m             a a a a D E a a g O P a a a a I + +                                             ",
"                  C 1     1 C 1 1 C           a a a a a Q Q a R S T a a a a a I + U V W                                         ",
"                    C     C C 1 C             a a a a a u X a Y Z n a a a a K ` +  ...+.                                        ",
"                                              a a a a a a K a @.#.a a a a a $.+ %.&.*.                                          ",
"                                              a a a a a a X =.-.;.a a a a >.I ,.'.).:                                           ",
"                                              a a a a a a X !.~.a a a a a {.].^./.+ +                                           ",
"                                            a a a a a a a X (._.:.:.:.:.<.[.}.].|.+ + 1.                                        ",
"                                            a a a a a a a X 2.K K K K K 3.+ 4.5.6.+ + 1.                                        ",
"                                            7.7.7.7.7.7.7.8.9.0.:.:.:.:.3.+ + + + + + 1.                                        ",
"1 m m                                       a.a.a.b.c.a.d.e.f.g.a a a a K + : : + : h.i.                                        ",
"  m 1 1                                             ! ~ + j.k.g.a a a a K +     +                                               ",
"  C 1 1                                             ! l.m.n.o.g.a a a a K +     +                                               ",
"    C C                                             ! p.q.n.o.g.a a a a K +     +                                               ",
"                                                    ! ~ + n.o.g.a a a a K +   @ +                                               ",
"                                                    ! r.s.n.o.g.a a a a K +   + +                                               ",
"                                                    ! ! t.u.o.g.a a a a K + : + +                                               ",
"                                                    ! ! ! v.o.g.a a a a K + + + +                                               ",
"                                                    w.x.y.z.o.g.a a a a K + A.                                                  ",
"                                                  B.C.D.E.a o.g.a a a a K + A.                                                  ",
"                                                F.C.    a a o.g.a a a a K + A.                                                  ",
"                                              B.C.    a a a o.g.a a a a K + A.                                                  ",
"                                            G.C.      a a a o.g.a a a a K + A.                                                  ",
"                                          F.C.        a a a o.g.a a a a K + A.                                                  ",
"                                        F.C.C         a a a o.g.a a a a K + A.                                                  ",
"                                      F.C.1           a a a o.g.a a a a K + A.                                                  ",
"                                    G.C.C C           a a a o.g.a a a a K + A.                                                  ",
"                                  C.C.                a a a o.g.a a a a K + H.                                                  ",
"                                F.C.                  a a a o.g.a a a a K + +                     m                             ",
"                              F.C.                    a a a o.g.a a a a K + +                   1 1     1 m m                   ",
"                            B.C.                      a a a o.g.a a a a K + +             m     1 C   1 1 m                     ",
"                                                      a a a o.g.a a a a K + +             C 1 1   C 1 1 1 C                     ",
"                                                      a a a o.g.a a a a K + + I.          C 1 1     1 1 C 1 m                   ",
"                                                      a a a o.g.a a a a K + + I.            C C     1 C 1 1 C                   ",
"                                                      a a a o.g.a a a a K + + I.                    C C 1 C                     ",
"  m m         1 1                                     a a a o.g.a a a a K + + I.m m 1                                         m ",
"    m 1 1   m m                                       a a a o.g.a a a a K + + J.  m 1 1                                         ",
"m m C 1 C 1 1 C                                       a a a o.g.a a a a K + + K.  C 1 1                                   1 m m ",
"m 1 1 C C 1 1 C                                       a a a o.g.a a a a K + + L.    C C                                     m 1 ",
"C 1 1     1 C                                         a a a o.g.a a a a K + + M.                                            C N.",
"  C 1                                                 a a a o.g.a a a a A + + M.                                              O.",
"                                                        a a o.g.a a a a P.+ + Q.                                                ",
"                                                                a a a                                                           ",
"                                                                                                                                ",
"                                                                                                                                "};
